<?xml version="1.0" standalone="no"?><!-- Generator: Gravit.io --><svg xmlns="http://www.w3.org/2000/svg" xmlns:xlink="http://www.w3.org/1999/xlink" style="isolation:isolate" viewBox="0 0 180 205" width="180" height="205"><defs><clipPath id="_clipPath_7V0pONRdN95VV0JVY8RkaaY8ROS3R2Xy"><rect width="180" height="205"/></clipPath></defs><g clip-path="url(#_clipPath_7V0pONRdN95VV0JVY8RkaaY8ROS3R2Xy)"><path d=" M 81.607 17.926 L 90.856 18.013 L 92.871 187.339 L 84.345 187.639 C 84.037 187.65 83.784 187.409 83.78 187.1 L 81.607 17.926 Z " fill="rgb(5,5,104)" vector-effect="non-scaling-stroke" stroke-width="1.857" stroke="rgb(0,0,0)" stroke-linejoin="miter" stroke-linecap="square" stroke-miterlimit="3"/><path d=" M 76.462 19.363 L 97.19 19.527 Q 101.002 19.482 101.089 17.123 Q 101.191 14.37 96.698 14.695 L 76.134 14.527 Q 72.188 14.916 72.415 17.349 Q 72.637 19.711 76.462 19.363 Z " fill="rgb(5,5,104)" vector-effect="non-scaling-stroke" stroke-width="1.857" stroke="rgb(0,0,0)" stroke-linejoin="miter" stroke-linecap="square" stroke-miterlimit="3"/><path d=" M 77.163 189.138 L 102.161 188.937 Q 106.752 188.773 106.717 184.826 Q 106.676 180.218 101.278 180.866 L 76.48 181.057 Q 71.745 181.798 72.165 185.861 Q 72.573 189.807 77.163 189.138 Z " fill="rgb(5,5,104)" vector-effect="non-scaling-stroke" stroke-width="1.857" stroke="rgb(0,0,0)" stroke-linejoin="miter" stroke-linecap="square" stroke-miterlimit="3"/><path d=" M 72.112 202.349 L 109.846 201.921 Q 116.778 201.675 116.781 196.475 Q 116.784 190.403 108.628 191.292 L 71.195 191.704 Q 64.039 192.711 64.615 198.063 Q 65.175 203.261 72.112 202.349 Z " fill="rgb(6,6,89)" vector-effect="non-scaling-stroke" stroke-width="1.857" stroke="rgb(0,0,0)" stroke-linejoin="miter" stroke-linecap="square" stroke-miterlimit="3"/><path d=" M 84.719 2.726 C 82.91 3.341 81.255 4.817 81.118 7.277 C 80.961 10.102 82.935 11.917 84.996 12.529 C 87.67 13.323 90.857 11.646 91.089 7.978 C 91.35 3.866 87.63 1.735 84.719 2.726 Z " fill="rgb(255,153,0)" vector-effect="non-scaling-stroke" stroke-width="1.857" stroke="rgb(0,0,0)" stroke-linejoin="miter" stroke-linecap="square" stroke-miterlimit="3"/><path d=" M 143.831 40.656 L 120.54 108.681 L 173.515 108.269 L 143.831 40.656 Z " fill="rgb(4,4,115)" vector-effect="non-scaling-stroke" stroke-width="3.471" stroke="rgb(0,0,0)" stroke-linejoin="miter" stroke-linecap="square" stroke-miterlimit="3"/><path d=" M 30.139 45.217 L 6.848 109.421 L 59.823 109.032 L 30.139 45.217 Z " fill="rgb(6,6,111)" vector-effect="non-scaling-stroke" stroke-width="3.372" stroke="rgb(0,0,0)" stroke-linejoin="miter" stroke-linecap="square" stroke-miterlimit="3"/><path d=" M 121.91 113.55 L 173.515 113.137 Q 164.058 129.172 150.225 130.005 Q 134.874 130.93 121.91 113.55 Z " fill="rgb(255,153,0)" vector-effect="non-scaling-stroke" stroke-width="3.471" stroke="rgb(0,0,0)" stroke-linejoin="miter" stroke-linecap="square" stroke-miterlimit="3"/><path d=" M 8.219 114.099 L 59.823 113.701 Q 50.366 129.201 36.533 130.006 Q 21.182 130.9 8.219 114.099 Z " fill="rgb(255,153,0)" vector-effect="non-scaling-stroke" stroke-width="3.372" stroke="rgb(0,0,0)" stroke-linejoin="miter" stroke-linecap="square" stroke-miterlimit="3"/><path d=" M 91.608 40.844 Q 103.147 45.878 109.793 44.366 C 117.28 42.663 114.745 33.447 122.444 32.04 Q 129.141 30.816 139.839 36.736 L 144.583 33.801 Q 128.22 24.32 118.491 27.345 C 111.407 29.547 113.75 38.587 105.84 39.67 Q 100.43 40.411 91.608 36.149 L 91.608 40.844 Z " fill="rgb(5,5,104)" vector-effect="non-scaling-stroke" stroke-width="1.24" stroke="rgb(0,0,0)" stroke-linejoin="miter" stroke-linecap="square" stroke-miterlimit="3"/><path d=" M 80.967 40.142 Q 69.78 45.454 63.179 44.246 C 55.743 42.886 57.912 33.873 50.278 32.808 Q 43.638 31.881 33.311 38.017 L 28.533 35.36 Q 44.314 25.561 54.005 28.114 C 61.061 29.973 59.075 38.807 66.906 39.552 Q 72.261 40.062 80.799 35.599 L 80.967 40.142 Z " fill="rgb(5,5,104)" vector-effect="non-scaling-stroke" stroke-width="1.24" stroke="rgb(0,0,0)" stroke-linejoin="miter" stroke-linecap="square" stroke-miterlimit="3"/><path d=" M 140.934 30.774 C 137.564 31.632 135.187 34.286 135.236 37.537 C 135.291 41.256 138.579 44.107 142.562 44.3 C 147.116 44.522 151.101 41.023 150.702 36.786 C 150.292 32.433 145.442 29.626 140.934 30.774 Z " fill="rgb(255,153,0)" vector-effect="non-scaling-stroke" stroke-width="1.358" stroke="rgb(0,0,0)" stroke-linejoin="miter" stroke-linecap="square" stroke-miterlimit="3"/><path d=" M 27.985 31.608 C 24.473 32.451 21.996 35.059 22.046 38.253 C 22.104 41.907 25.531 44.708 29.682 44.898 C 34.428 45.116 38.582 41.678 38.166 37.515 C 37.738 33.238 32.684 30.48 27.985 31.608 Z " fill="rgb(255,153,0)" vector-effect="non-scaling-stroke" stroke-width="1.374" stroke="rgb(0,0,0)" stroke-linejoin="miter" stroke-linecap="square" stroke-miterlimit="3"/></g></svg>