<?xml version="1.0" standalone="no"?><!-- Generator: Gravit.io --><svg xmlns="http://www.w3.org/2000/svg" xmlns:xlink="http://www.w3.org/1999/xlink" style="isolation:isolate" viewBox="0 0 200 200" width="200" height="200"><defs><clipPath id="_clipPath_qAzHFXQ1t2XOeXWvobMvURQyPvtftR3T"><rect width="200" height="200"/></clipPath></defs><g clip-path="url(#_clipPath_qAzHFXQ1t2XOeXWvobMvURQyPvtftR3T)"><path d=" M 95.667 2.515 L 21 48.182 L 31.667 45.557 L 163 45.82 L 173.545 48.045 L 95.667 2.515 Z " fill="rgb(46,46,46)" vector-effect="non-scaling-stroke" stroke-width="1" stroke="rgb(46,46,46)" stroke-linejoin="miter" stroke-linecap="square" stroke-miterlimit="3"/><path d=" M 31.333 66.182 L 164.333 67.182 L 163.66 46.515 L 31.333 45.515 L 31.333 66.182 Z " fill="rgb(152,0,0)" vector-effect="non-scaling-stroke" stroke-width="1" stroke="rgb(0,0,0)" stroke-linejoin="miter" stroke-linecap="square" stroke-miterlimit="3"/><path d=" M 32 68.182 L 44 68.182 L 43.667 143.182 L 47 143.182 L 47 149.182 L 30 149.515 L 30 143.848 L 33.333 143.848 L 32 68.182 Z " fill="rgb(145,7,7)" vector-effect="non-scaling-stroke" stroke-width="1" stroke="rgb(0,0,0)" stroke-linejoin="miter" stroke-linecap="square" stroke-miterlimit="3"/><path d=" M 86.373 85.515 L 110.608 85.515 L 111 151.601 L 116.667 151.601 L 116.667 156.888 L 82 157.182 L 82 151.601 L 86.667 151.601 L 86.373 85.515 Z " fill="rgb(155,9,9)" vector-effect="non-scaling-stroke" stroke-width="1" stroke="rgb(0,0,0)" stroke-linejoin="miter" stroke-linecap="square" stroke-miterlimit="3"/><path d=" M 58.333 75.848 L 70.333 75.848 L 70 145.008 L 73.333 145.008 L 73.333 150.541 L 56.333 150.848 L 56.333 145.623 L 59.667 145.623 L 58.333 75.848 Z " fill="rgb(132,10,10)" vector-effect="non-scaling-stroke" stroke-width="1" stroke="rgb(0,0,0)" stroke-linejoin="miter" stroke-linecap="square" stroke-miterlimit="3"/><path d=" M 125.333 72.848 L 137.333 72.848 L 137 143.853 L 140.333 143.853 L 140.333 149.533 L 123.333 149.848 L 123.333 144.484 L 126.667 144.484 L 125.333 72.848 Z " fill="rgb(125,11,11)" vector-effect="non-scaling-stroke" stroke-width="1" stroke="rgb(0,0,0)" stroke-linejoin="miter" stroke-linecap="square" stroke-miterlimit="3"/><path d=" M 150 69.182 L 162 69.182 L 161.667 144.182 L 165 144.182 L 165 150.182 L 148 150.515 L 148 144.848 L 151.333 144.848 L 150 69.182 Z " fill="rgb(155,6,6)" vector-effect="non-scaling-stroke" stroke-width="1" stroke="rgb(0,0,0)" stroke-linejoin="miter" stroke-linecap="square" stroke-miterlimit="3"/><g transform="matrix(1,0,0,1,78.667,46.182)"><text transform="matrix(1,0,0,1,0,16.155)" style="font-family:&quot;Bree Serif&quot;;font-weight:400;font-size:15px;font-style:normal;fill:#FFFFFF;stroke:none;">BANK</text></g><path d=" M 96.396 20.764 C 93.6 21.134 91.494 23.373 91.511 26.129 C 91.529 28.976 93.822 31.249 96.729 31.457 C 100.226 31.707 103.246 28.693 102.729 25.3 C 102.279 22.345 99.426 20.362 96.396 20.764 Z " fill="rgb(255,255,255)" vector-effect="non-scaling-stroke" stroke-width="1" stroke="rgb(0,0,0)" stroke-linejoin="miter" stroke-linecap="square" stroke-miterlimit="3"/><path d=" M 96.667 22.952 C 94.898 23.287 93.443 24.928 94 27.195 C 94.448 29.018 96.109 29.765 97.667 29.508 C 99.36 29.23 100.92 27.705 100.667 25.652 C 100.384 23.357 98.426 22.62 96.667 22.952 Z " fill="rgb(255,255,255)" vector-effect="non-scaling-stroke" stroke-width="1" stroke="rgb(0,0,0)" stroke-linejoin="miter" stroke-linecap="square" stroke-miterlimit="3"/><path d=" M 29.485 161.091 L 166.152 159.758 L 166.152 168.424 L 29.485 169.091 L 29.485 161.091 Z " fill="rgb(46,46,46)" vector-effect="non-scaling-stroke" stroke-width="1" stroke="rgb(0,0,0)" stroke-linejoin="miter" stroke-linecap="square" stroke-miterlimit="3"/><path d=" M 16.249 172.394 L 182.485 171.758 L 182.485 185.091 L 16.152 185.758 L 16.249 172.394 Z " fill="rgb(46,46,46)" vector-effect="non-scaling-stroke" stroke-width="1" stroke="rgb(0,0,0)" stroke-linejoin="miter" stroke-linecap="square" stroke-miterlimit="3"/></g></svg>