<?xml version="1.0" standalone="no"?><!-- Generator: Gravit.io --><svg xmlns="http://www.w3.org/2000/svg" xmlns:xlink="http://www.w3.org/1999/xlink" style="isolation:isolate" viewBox="0 0 200 180" width="200" height="180"><defs><clipPath id="_clipPath_iMzFkg5zS1STd5Kv4qQ7pZKyNXWtaoJT"><rect width="200" height="180"/></clipPath></defs><g clip-path="url(#_clipPath_iMzFkg5zS1STd5Kv4qQ7pZKyNXWtaoJT)"><path d=" M 39.945 22.182 L 170.967 21.636 L 132.146 89.245 L -1.909 90.335 L 39.945 22.182 Z " fill="rgb(176,207,255)" vector-effect="non-scaling-stroke" stroke-width="1.15" stroke="rgb(0,0,0)" stroke-linejoin="miter" stroke-linecap="square" stroke-miterlimit="3"/><path d=" M 169.754 21.636 L 141.851 98.514 L 3.55 100.695 L 9.616 90.335 L 132.146 89.79 L 169.754 21.636 Z " fill="rgb(247,247,179)" vector-effect="non-scaling-stroke" stroke-width="1.15" stroke="rgb(0,0,0)" stroke-linejoin="miter" stroke-linecap="square" stroke-miterlimit="3"/><path d=" M 169.754 23.272 L 144.884 108.127 L 9.616 109.418 L 15.682 100.382 L 140.638 98.514 L 169.754 23.272 Z " fill="rgb(190,212,247)" vector-effect="non-scaling-stroke" stroke-width="1.15" stroke="rgb(0,0,0)" stroke-linejoin="miter" stroke-linecap="square" stroke-miterlimit="3"/><path d=" M 67.232 64.602 L 199.091 62.241 L 192.236 114.836 L 51.821 117.074 L 67.232 64.602 Z " fill="rgb(253,253,206)" vector-effect="non-scaling-stroke" stroke-width="1.153" stroke="rgb(0,0,0)" stroke-linejoin="miter" stroke-linecap="square" stroke-miterlimit="3"/><path d=" M 52.392 115.91 L 192.806 114.164 L 162.554 162.472 L 18.715 163.636 L 52.392 115.91 Z " fill="rgb(249,249,204)" vector-effect="non-scaling-stroke" stroke-width="1.153" stroke="rgb(0,0,0)" stroke-linejoin="miter" stroke-linecap="square" stroke-miterlimit="3"/><path d=" M 29.633 39.709 L 158.836 39.064 L 151.557 53.264 L 21.748 52.618 L 29.633 39.709 Z " fill="rgb(255,255,255)" vector-effect="non-scaling-stroke" stroke-width="1.251" stroke="rgb(0,0,0)" stroke-linejoin="miter" stroke-linecap="square" stroke-miterlimit="3"/><path d=" M 87.411 49.529 Q 91.55 47.523 91.104 45.529 C 90.673 43.606 88.344 42.745 86.212 43.127 C 84.804 43.38 83.565 44.047 83.084 45.263 Q 82.336 47.152 86.136 49.315 L 86.079 52.054 Q 81.137 49.451 80.928 46.843 C 80.825 45.554 81.126 44.412 81.929 43.306 C 84.82 39.32 92.508 40.437 93.644 44.964 Q 94.508 48.408 87.333 51.936 L 87.411 49.529 Z " fill="rgb(41,41,204)" vector-effect="non-scaling-stroke" stroke-width="1.251" stroke="rgb(0,0,0)" stroke-linejoin="miter" stroke-linecap="square" stroke-miterlimit="3"/><line x1="64.319" y1="73.683" x2="197.878" y2="71.923" vector-effect="non-scaling-stroke" stroke-width="1.251" stroke="rgb(0,0,0)" stroke-linejoin="miter" stroke-linecap="square" stroke-miterlimit="3"/><line x1="128.617" y1="64.002" x2="127.404" y2="72.393" vector-effect="non-scaling-stroke" stroke-width="1.251" stroke="rgb(0,0,0)" stroke-linejoin="miter" stroke-linecap="square" stroke-miterlimit="3"/><line x1="61.893" y1="83.365" x2="195.451" y2="81.605" vector-effect="non-scaling-stroke" stroke-width="1.251" stroke="rgb(0,0,0)" stroke-linejoin="miter" stroke-linecap="square" stroke-miterlimit="3"/><line x1="92.828" y1="73.683" x2="91.009" y2="82.72" vector-effect="non-scaling-stroke" stroke-width="1.251" stroke="rgb(0,0,0)" stroke-linejoin="miter" stroke-linecap="square" stroke-miterlimit="3"/><line x1="127.404" y1="71.747" x2="125.584" y2="82.074" vector-effect="non-scaling-stroke" stroke-width="1.251" stroke="rgb(0,0,0)" stroke-linejoin="miter" stroke-linecap="square" stroke-miterlimit="3"/><line x1="167.438" y1="73.038" x2="166.832" y2="82.72" vector-effect="non-scaling-stroke" stroke-width="1.251" stroke="rgb(0,0,0)" stroke-linejoin="miter" stroke-linecap="square" stroke-miterlimit="3"/><path d=" M 91.119 82.25 L 81.91 116.283 L 60.679 151.783 L 104.464 151.314 L 122.551 115.638 L 126.19 82.72 L 167.438 81.429 L 163.799 114.993 L 143.892 151.314 L 106.173 151.783" fill="none" vector-effect="non-scaling-stroke" stroke-width="1.251" stroke="rgb(0,0,0)" stroke-linejoin="miter" stroke-linecap="square" stroke-miterlimit="3"/><line x1="26.821" y1="151.96" x2="168.762" y2="151.314" vector-effect="non-scaling-stroke" stroke-width="1.251" stroke="rgb(0,0,0)" stroke-linejoin="miter" stroke-linecap="square" stroke-miterlimit="3"/></g></svg>