<?xml version="1.0" standalone="no"?><!-- Generator: Gravit.io --><svg xmlns="http://www.w3.org/2000/svg" xmlns:xlink="http://www.w3.org/1999/xlink" style="isolation:isolate" viewBox="0 0 155 160" width="155" height="160"><defs><clipPath id="_clipPath_0thmSfWNJz2TPhbBD7Xbs4MnZoW6L5S5"><rect width="155" height="160"/></clipPath></defs><g clip-path="url(#_clipPath_0thmSfWNJz2TPhbBD7Xbs4MnZoW6L5S5)"><path d=" M 18.052 149.356 L 18.052 58.221 L 70.15 31.369 L 84.496 44.388 L 86.383 149.763 L 18.052 149.356 Z " fill="rgb(1,25,54)" vector-effect="non-scaling-stroke" stroke-width="1.176" stroke="rgb(0,0,0)" stroke-linejoin="miter" stroke-linecap="square" stroke-miterlimit="3"/><path d=" M 28.243 148.288 L 27.867 68.189 L 68.436 49.271 L 68.811 148.69" fill="rgb(229,235,247)" vector-effect="non-scaling-stroke" stroke-width="1.176" stroke="rgb(255,255,255)" stroke-linejoin="miter" stroke-linecap="square" stroke-miterlimit="3"/><path d=" M 34.285 72.868 L 34.663 81.819 L 63.457 67.736 L 63.457 57.972 L 34.285 72.868 Z " fill="rgb(240,151,18)" vector-effect="non-scaling-stroke" stroke-width="1.176" stroke="rgb(255,255,255)" stroke-linejoin="miter" stroke-linecap="square" stroke-miterlimit="3"/><path d=" M 34.285 90.566 L 34.663 99.11 L 64.487 85.684 L 64.109 77.14 L 34.285 90.566 Z " fill="rgb(240,151,18)" vector-effect="non-scaling-stroke" stroke-width="1.176" stroke="rgb(255,255,255)" stroke-linejoin="miter" stroke-linecap="square" stroke-miterlimit="3"/><path d=" M 35.04 108.061 L 35.049 116.863 L 63.354 105.213 L 63.732 96.262 L 35.04 108.061 Z " fill="rgb(240,151,18)" vector-effect="non-scaling-stroke" stroke-width="1.176" stroke="rgb(255,255,255)" stroke-linejoin="miter" stroke-linecap="square" stroke-miterlimit="3"/><path d=" M 36.173 127.386 L 62.514 116.558 L 62.514 126.933 L 36.173 136.744 L 36.173 127.386 Z " fill="rgb(240,151,18)" vector-effect="non-scaling-stroke" stroke-width="1.176" stroke="rgb(255,255,255)" stroke-linejoin="miter" stroke-linecap="square" stroke-miterlimit="3"/><path d=" M 36.722 148.69 L 36.722 145.406 L 61.947 138.528 L 61.947 148.423" fill="rgb(240,151,18)" vector-effect="non-scaling-stroke" stroke-width="1.176" stroke="rgb(255,255,255)" stroke-linejoin="miter" stroke-linecap="square" stroke-miterlimit="3"/><path d=" M 69.91 31.887 L 55.787 38.854 L 55.787 4.674 L 120.909 4.674 L 136.199 22.52 L 139.597 149.861 L 122.042 150.465 L 119.742 19.275 L 69.532 18.868 L 69.91 31.887 Z " fill="rgb(1,25,54)" vector-effect="non-scaling-stroke" stroke-width="1.176" stroke="rgb(0,0,0)" stroke-linejoin="miter" stroke-linecap="square" stroke-miterlimit="3"/><path d=" M 70.287 30.494 L 69.91 19.275 L 119.742 19.675 L 121.63 149.504 L 86.521 149.103 L 84.255 44.118 L 70.287 30.494 Z " fill="rgb(229,235,247)" vector-effect="non-scaling-stroke" stroke-width="1.176" stroke="rgb(255,255,255)" stroke-linejoin="miter" stroke-linecap="square" stroke-miterlimit="3"/><path d=" M 94.689 84.085 L 116.207 83.502 L 117.34 148.283 L 95.821 148.283 L 94.689 84.085 Z " fill="rgb(240,151,18)" vector-effect="non-scaling-stroke" stroke-width="1.176" stroke="rgb(255,255,255)" stroke-linejoin="miter" stroke-linecap="square" stroke-miterlimit="3"/><path d=" M 95.993 28.262 L 112.981 28.262 L 113.359 44.943 L 95.993 44.943 L 95.993 28.262 Z " fill="rgb(240,151,18)" vector-effect="non-scaling-stroke" stroke-width="1.176" stroke="rgb(255,255,255)" stroke-linejoin="miter" stroke-linecap="square" stroke-miterlimit="3"/><path d=" M 96.37 51.86 L 113.359 51.86 L 113.736 68.541 L 96.37 68.541 L 96.37 51.86 Z " fill="rgb(240,151,18)" vector-effect="non-scaling-stroke" stroke-width="1.176" stroke="rgb(255,255,255)" stroke-linejoin="miter" stroke-linecap="square" stroke-miterlimit="3"/><path d=" M 8.408 149.504 L 148.091 150.724 L 148.091 158.455 L 8.03 157.641 L 8.408 149.504 Z " fill="rgb(1,25,54)" vector-effect="non-scaling-stroke" stroke-width="1.176" stroke="rgb(0,0,0)" stroke-linejoin="miter" stroke-linecap="square" stroke-miterlimit="3"/></g></svg>