<?xml version="1.0" standalone="no"?><!-- Generator: Gravit.io --><svg xmlns="http://www.w3.org/2000/svg" xmlns:xlink="http://www.w3.org/1999/xlink" style="isolation:isolate" viewBox="0 0 250 200" width="250" height="200"><defs><clipPath id="_clipPath_beBwkhmvc3mARlFa7eBjTJeHj84ICQdw"><rect width="250" height="200"/></clipPath></defs><g clip-path="url(#_clipPath_beBwkhmvc3mARlFa7eBjTJeHj84ICQdw)"><path d=" M 0.727 1 L 248.727 1 L 248.727 18.5 L 0.727 18 L 0.727 1 Z " fill="rgb(34,208,208)" vector-effect="non-scaling-stroke" stroke-width="1" stroke="rgb(0,0,0)" stroke-linejoin="miter" stroke-linecap="square" stroke-miterlimit="3"/><path d=" M 3.682 4.057 L 18.587 3.83 L 18.625 5.173 L 3.731 5.33 L 3.682 4.057 Z " fill="rgb(255,255,255)" vector-effect="non-scaling-stroke" stroke-width="1.186" stroke="rgb(255,255,255)" stroke-linejoin="miter" stroke-linecap="square" stroke-miterlimit="3"/><path d=" M 3.688 8.643 L 18.649 8.392 L 18.687 9.684 L 3.688 9.892 L 3.688 8.643 Z " fill="rgb(255,255,255)" vector-effect="non-scaling-stroke" stroke-width="1.195" stroke="rgb(255,255,255)" stroke-linejoin="miter" stroke-linecap="square" stroke-miterlimit="3"/><path d=" M 3.852 12.968 L 18.813 12.767 L 18.852 14.116 L 3.891 14.267 L 3.852 12.968 Z " fill="rgb(255,255,255)" vector-effect="non-scaling-stroke" stroke-width="1.173" stroke="rgb(255,255,255)" stroke-linejoin="miter" stroke-linecap="square" stroke-miterlimit="3"/><g transform="matrix(1,0,0,1,25.813,1.193)"><text transform="matrix(1,0,0,1,0,12.105)" style="font-family:&quot;Basic&quot;;font-weight:400;font-size:12px;font-style:normal;fill:#FFFFFF;stroke:none;">TAXXO</text></g><path d=" M 231.253 3 C 230.568 3.015 229.842 3.5 229.818 4.437 C 229.792 5.411 230.54 5.983 231.253 5.977 C 232.017 5.971 232.827 5.272 232.689 4.232 C 232.575 3.371 231.898 2.985 231.253 3 Z " fill="rgb(255,255,255)" vector-effect="non-scaling-stroke" stroke-width="1" stroke="rgb(255,255,255)" stroke-linejoin="miter" stroke-linecap="square" stroke-miterlimit="3"/><path d=" M 231.253 8.25 C 230.568 8.265 229.842 8.75 229.818 9.687 C 229.792 10.661 230.54 11.233 231.253 11.227 C 232.017 11.221 232.827 10.522 232.689 9.482 C 232.575 8.621 231.898 8.235 231.253 8.25 Z " fill="rgb(255,255,255)" vector-effect="non-scaling-stroke" stroke-width="1" stroke="rgb(255,255,255)" stroke-linejoin="miter" stroke-linecap="square" stroke-miterlimit="3"/><path d=" M 231.253 13.25 C 230.568 13.265 229.842 13.75 229.818 14.687 C 229.792 15.661 230.54 16.233 231.253 16.227 C 232.017 16.221 232.827 15.522 232.689 14.482 C 232.575 13.621 231.898 13.235 231.253 13.25 Z " fill="rgb(255,255,255)" vector-effect="non-scaling-stroke" stroke-width="1" stroke="rgb(255,255,255)" stroke-linejoin="miter" stroke-linecap="square" stroke-miterlimit="3"/><path d=" M 1.028 18.339 L 248.654 18.339 L 248.684 198 L 0.727 197.505 L 1.028 18.339 Z " fill="rgb(255,255,255)" vector-effect="non-scaling-stroke" stroke-width="1" stroke="rgb(0,0,0)" stroke-linejoin="miter" stroke-linecap="square" stroke-miterlimit="3"/><path d=" M 2.427 45.986 L 2.121 72.027 L 57.121 71.738 L 56.816 45.697 L 2.427 45.986 Z " fill="rgb(232,232,232)" vector-effect="non-scaling-stroke" stroke-width="0.967" stroke="rgb(255,255,255)" stroke-linejoin="miter" stroke-linecap="square" stroke-miterlimit="3"/><path d=" M 64.427 45.986 L 64.455 72.027 L 119.121 71.738 L 118.816 45.697 L 64.427 45.986 Z " fill="rgb(232,232,232)" vector-effect="non-scaling-stroke" stroke-width="0.892" stroke="rgb(255,255,255)" stroke-linejoin="miter" stroke-linecap="square" stroke-miterlimit="3"/><path d=" M 126.677 45.948 L 126.371 71.972 L 181.371 71.985 L 181.066 45.655 L 126.677 45.948 Z " fill="rgb(232,232,232)" vector-effect="non-scaling-stroke" stroke-width="0.954" stroke="rgb(255,255,255)" stroke-linejoin="miter" stroke-linecap="square" stroke-miterlimit="3"/><path d=" M 190.093 45.57 L 190.121 71.614 L 244.788 71.324 L 244.482 45.28 L 190.093 45.57 Z " fill="rgb(232,232,232)" vector-effect="non-scaling-stroke" stroke-width="0.936" stroke="rgb(255,255,255)" stroke-linejoin="miter" stroke-linecap="square" stroke-miterlimit="3"/><path d=" M 6.788 30.011 L 6.788 56.697 L 31.288 56.697 L 31.288 29.697 L 6.788 30.011 Z " fill="rgb(255,175,54)" vector-effect="non-scaling-stroke" stroke-width="0.997" stroke="rgb(255,181,69)" stroke-linejoin="miter" stroke-linecap="square" stroke-miterlimit="3"/><path d=" M 69.121 29.678 L 69.121 56.364 L 93.621 56.364 L 93.621 29.364 L 69.121 29.678 Z " fill="rgb(251,73,73)" vector-effect="non-scaling-stroke" stroke-width="0.948" stroke="rgb(240,82,82)" stroke-linejoin="miter" stroke-linecap="square" stroke-miterlimit="3"/><path d=" M 132.205 29.428 L 132.205 56.114 L 156.705 56.114 L 156.705 29.114 L 132.205 29.428 Z " fill="rgb(58,206,58)" vector-effect="non-scaling-stroke" stroke-width="0.948" stroke="rgb(6,210,6)" stroke-linejoin="miter" stroke-linecap="square" stroke-miterlimit="3"/><path d=" M 195.83 28.719 L 195.83 55.405 L 220.33 55.405 L 220.33 28.405 L 195.83 28.719 Z " fill="rgb(120,170,251)" vector-effect="non-scaling-stroke" stroke-width="0.948" stroke="rgb(108,161,247)" stroke-linejoin="miter" stroke-linecap="square" stroke-miterlimit="3"/><path d=" M 10.604 43.823 L 17.543 39.188 L 18.017 44.319 L 25.745 40.016 L 24.562 39.271 L 30.5 37.197 L 26.612 42.664 L 26.533 41.092 L 16.834 46.554 L 16.676 41.423 L 9.5 46.636 L 10.604 43.823 Z " fill="rgb(255,255,255)" vector-effect="non-scaling-stroke" stroke-width="1" stroke="rgb(255,255,255)" stroke-linejoin="miter" stroke-linecap="square" stroke-miterlimit="3"/><path d=" M 136.191 33.391 L 146.502 33.391 L 146.502 34.063 L 136.191 34.103 L 136.191 33.391 Z " fill="rgb(255,255,255)" vector-effect="non-scaling-stroke" stroke-width="0.635" stroke="rgb(255,255,255)" stroke-linejoin="miter" stroke-linecap="square" stroke-miterlimit="3"/><path d=" M 153.662 42.891 L 153.432 49.268 L 153.159 49.266 L 153.373 42.889 L 153.662 42.891 Z " fill="rgb(255,255,255)" vector-effect="non-scaling-stroke" stroke-width="0.318" stroke="rgb(255,255,255)" stroke-linejoin="miter" stroke-linecap="square" stroke-miterlimit="3"/><path d=" M 136.274 36.624 L 146.295 36.624 L 146.295 37.333 L 136.274 37.374 L 136.274 36.624 Z " fill="rgb(255,255,255)" vector-effect="non-scaling-stroke" stroke-width="0.635" stroke="rgb(255,255,255)" stroke-linejoin="miter" stroke-linecap="square" stroke-miterlimit="3"/><path d=" M 152.348 42.931 L 152.125 49.129 L 151.837 49.126 L 152.044 42.928 L 152.348 42.931 Z " fill="rgb(255,255,255)" vector-effect="non-scaling-stroke" stroke-width="0.318" stroke="rgb(255,255,255)" stroke-linejoin="miter" stroke-linecap="square" stroke-miterlimit="3"/><path d=" M 136.067 43.357 L 146.585 43.357 L 146.585 44.101 L 136.067 44.145 L 136.067 43.357 Z " fill="rgb(255,255,255)" vector-effect="non-scaling-stroke" stroke-width="0.635" stroke="rgb(255,255,255)" stroke-linejoin="miter" stroke-linecap="square" stroke-miterlimit="3"/><path d=" M 149.621 42.779 L 149.386 49.284 L 149.084 49.281 L 149.301 42.776 L 149.621 42.779 Z " fill="rgb(255,255,255)" vector-effect="non-scaling-stroke" stroke-width="0.318" stroke="rgb(255,255,255)" stroke-linejoin="miter" stroke-linecap="square" stroke-miterlimit="3"/><path d=" M 136.108 46.732 L 146.999 46.732 L 146.999 47.45 L 136.108 47.492 L 136.108 46.732 Z " fill="rgb(255,255,255)" vector-effect="non-scaling-stroke" stroke-width="0.635" stroke="rgb(255,255,255)" stroke-linejoin="miter" stroke-linecap="square" stroke-miterlimit="3"/><path d=" M 148.251 42.792 L 148.007 49.528 L 147.716 49.525 L 147.942 42.789 L 148.251 42.792 Z " fill="rgb(255,255,255)" vector-effect="non-scaling-stroke" stroke-width="0.318" stroke="rgb(255,255,255)" stroke-linejoin="miter" stroke-linecap="square" stroke-miterlimit="3"/><path d=" M 135.651 49.053 L 135.707 33.341 L 136.543 33.343 L 136.536 49.055 L 135.651 49.053 Z " fill="rgb(255,255,255)" vector-effect="non-scaling-stroke" stroke-width="0.635" stroke="rgb(255,255,255)" stroke-linejoin="miter" stroke-linecap="square" stroke-miterlimit="3"/><path d=" M 147.319 42.501 L 153.693 42.592 L 153.674 43.109 L 147.298 43.048 L 147.319 42.501 Z " fill="rgb(255,255,255)" vector-effect="non-scaling-stroke" stroke-width="0.318" stroke="rgb(255,255,255)" stroke-linejoin="miter" stroke-linecap="square" stroke-miterlimit="3"/><path d=" M 146.669 49.244 L 146.499 33.4 L 147.328 33.392 L 147.548 49.236 L 146.669 49.244 Z " fill="rgb(255,255,255)" vector-effect="non-scaling-stroke" stroke-width="0.635" stroke="rgb(255,255,255)" stroke-linejoin="miter" stroke-linecap="square" stroke-miterlimit="3"/><path d=" M 146.995 49.314 L 153.428 49.266 L 153.413 49.779 L 146.979 49.858 L 146.995 49.314 Z " fill="rgb(255,255,255)" vector-effect="non-scaling-stroke" stroke-width="0.318" stroke="rgb(255,255,255)" stroke-linejoin="miter" stroke-linecap="square" stroke-miterlimit="3"/><path d=" M 135.57 49.204 L 147.579 49.204 L 147.579 49.789 L 135.57 49.823 L 135.57 49.204 Z " fill="rgb(255,255,255)" vector-effect="non-scaling-stroke" stroke-width="0.635" stroke="rgb(255,255,255)" stroke-linejoin="miter" stroke-linecap="square" stroke-miterlimit="3"/><path d=" M 136.274 39.705 L 146.627 39.705 L 146.627 40.414 L 136.274 40.455 L 136.274 39.705 Z " fill="rgb(255,255,255)" vector-effect="non-scaling-stroke" stroke-width="0.635" stroke="rgb(255,255,255)" stroke-linejoin="miter" stroke-linecap="square" stroke-miterlimit="3"/><path d=" M 151.098 42.92 L 150.867 49.323 L 150.58 49.32 L 150.794 42.917 L 151.098 42.92 Z " fill="rgb(255,255,255)" vector-effect="non-scaling-stroke" stroke-width="0.318" stroke="rgb(255,255,255)" stroke-linejoin="miter" stroke-linecap="square" stroke-miterlimit="3"/><path d=" M 139.593 49.658 L 139.69 33.874 L 140.5 33.879 L 140.45 49.663 L 139.593 49.658 Z " fill="rgb(255,255,255)" vector-effect="non-scaling-stroke" stroke-width="0.635" stroke="rgb(255,255,255)" stroke-linejoin="miter" stroke-linecap="square" stroke-miterlimit="3"/><path d=" M 146.985 44.936 L 153.388 45.054 L 153.368 45.554 L 146.964 45.466 L 146.985 44.936 Z " fill="rgb(255,255,255)" vector-effect="non-scaling-stroke" stroke-width="0.318" stroke="rgb(255,255,255)" stroke-linejoin="miter" stroke-linecap="square" stroke-miterlimit="3"/><path d=" M 143.436 49.701 L 143.356 33.801 L 144.216 33.797 L 144.347 49.697 L 143.436 49.701 Z " fill="rgb(255,255,255)" vector-effect="non-scaling-stroke" stroke-width="0.635" stroke="rgb(255,255,255)" stroke-linejoin="miter" stroke-linecap="square" stroke-miterlimit="3"/><path d=" M 146.882 47.313 L 153.336 47.321 L 153.318 47.853 L 146.864 47.877 L 146.882 47.313 Z " fill="rgb(255,255,255)" vector-effect="non-scaling-stroke" stroke-width="0.318" stroke="rgb(255,255,255)" stroke-linejoin="miter" stroke-linecap="square" stroke-miterlimit="3"/><path d=" M 200.193 46.658 L 206.631 40.439 L 208.171 43.496 L 213.989 35.852 L 214.749 34.852 L 215.449 35.432 L 207.961 45.13 L 206.351 41.809 L 200.699 47.227" fill="none" vector-effect="non-scaling-stroke" stroke-width="1" stroke="rgb(255,255,255)" stroke-linejoin="miter" stroke-linecap="square" stroke-miterlimit="3"/><path d=" M 207.256 37.017 Q 211.46 35.487 213.318 36.83 Q 215.157 38.158 215.068 42.58 L 214.318 42.767 Q 214.492 38.815 212.881 37.58 Q 211.251 36.33 207.443 37.58" fill="rgb(120,170,251)" vector-effect="non-scaling-stroke" stroke-width="0.948" stroke="rgb(255,255,255)" stroke-linejoin="miter" stroke-linecap="square" stroke-miterlimit="3"/><path d=" M 83.495 38.563 Q 81.544 35.813 79.686 35.96 Q 78.05 36.09 76.512 38.563 Q 75.478 41.085 76.512 42.096 Q 77.123 42.692 78.825 42.971 Q 80.848 42.611 82.105 42.645 C 83.913 42.694 85.156 43.383 83.586 45.899 Q 81.623 47.991 80.042 47.898 Q 78.433 47.803 76.815 45.434 L 76.656 45.527 Q 78.253 48.768 80.148 48.502 C 81.911 48.254 83.224 47.673 84.274 46.178 Q 84.839 44.496 84.591 43.482 C 84.391 42.664 83.684 42.135 82.898 42.041 Q 81.948 41.927 78.667 42.32 Q 77.489 42.019 77.08 41.576 Q 76.397 40.839 77.027 39.066 Q 78.241 37.017 79.566 36.742 Q 81.223 36.398 83.495 38.563 Z " fill="rgb(255,255,255)" vector-effect="non-scaling-stroke" stroke-width="0.793" stroke="rgb(255,255,255)" stroke-linejoin="miter" stroke-linecap="square" stroke-miterlimit="3"/><path d=" M 79.989 34.743 L 80.412 50.364 L 81.153 50.361 L 80.624 34.697" fill="none" vector-effect="non-scaling-stroke" stroke-width="0.793" stroke="rgb(255,255,255)" stroke-linejoin="miter" stroke-linecap="square" stroke-miterlimit="3"/></g></svg>