<?xml version="1.0" standalone="no"?><!-- Generator: Gravit.io --><svg xmlns="http://www.w3.org/2000/svg" xmlns:xlink="http://www.w3.org/1999/xlink" style="isolation:isolate" viewBox="0 0 150 150" width="150" height="150"><defs><clipPath id="_clipPath_39CLyFCj7TproTWM2H0Eir1ZSGQ84Ltd"><rect width="150" height="150"/></clipPath></defs><g clip-path="url(#_clipPath_39CLyFCj7TproTWM2H0Eir1ZSGQ84Ltd)"><linearGradient id="_lgradient_7" x1="0%" y1="50%" x2="100%" y2="50%"><stop offset="100%" stop-opacity="1" style="stop-color:rgb(0,150,136)"/><stop offset="100%" stop-opacity="1" style="stop-color:rgb(0,0,0)"/></linearGradient><path d=" M 3.293 28.067 Q 3.906 19.145 24.015 20.025 L 135.912 18.133 Q 141.301 18.975 143.164 20.971 Q 144.816 22.74 145.237 27.121 L 146.273 104.233 L 130.731 131.671 L 130.731 40.84 Q 131.185 37.059 129.695 35.636 Q 128.054 34.069 123.479 34.69 L 25.569 36.11 Q 2.597 38.204 3.293 28.067 Z " fill="url(#_lgradient_7)" vector-effect="non-scaling-stroke" stroke-width="1.535" stroke="rgb(0,0,0)" stroke-linejoin="miter" stroke-linecap="square" stroke-miterlimit="3"/><linearGradient id="_lgradient_8" x1="0%" y1="50%" x2="100%" y2="50%"><stop offset="0%" stop-opacity="1" style="stop-color:rgb(27,140,127)"/><stop offset="13.478260869565217%" stop-opacity="1" style="stop-color:rgb(67,255,233)"/><stop offset="35.21288837744533%" stop-opacity="1" style="stop-color:rgb(51,203,185)"/><stop offset="67.28039892596856%" stop-opacity="1" style="stop-color:rgb(45,183,167)"/><stop offset="95.9723820483314%" stop-opacity="1" style="stop-color:rgb(35,151,137)"/><stop offset="99.99999999999993%" stop-opacity="1" style="stop-color:rgb(17,90,81)"/><stop offset="100%" stop-opacity="1" style="stop-color:rgb(54,212,193)"/><stop offset="100%" stop-opacity="1" style="stop-color:rgb(0,0,0)"/></linearGradient><path d=" M 3.834 32.204 L 3.294 139.317 L 130.086 140.455 L 131.166 41.908 Q 130.728 37.69 129.007 36.085 Q 126.579 33.821 119.835 34.63 C 115.985 34.717 114.362 35.048 110.663 35.115 C 64.019 35.962 28.973 36.002 10.848 36.085 Q 7.618 36.1 3.834 32.204 Z " fill="url(#_lgradient_8)" vector-effect="non-scaling-stroke" stroke-width="1.535" stroke="rgb(0,0,0)" stroke-linejoin="miter" stroke-linecap="square" stroke-miterlimit="3"/><linearGradient id="_lgradient_9" x1="26.31191608646828%" y1="51.69943731307658%" x2="99.99999999999999%" y2="49.99999999999997%"><stop offset="0%" stop-opacity="1" style="stop-color:rgb(193,3,3)"/><stop offset="44.48319698748329%" stop-opacity="1" style="stop-color:rgb(184,3,3)"/><stop offset="99.99999999999993%" stop-opacity="1" style="stop-color:rgb(162,3,3)"/><stop offset="100%" stop-opacity="1" style="stop-color:rgb(0,0,0)"/></linearGradient><path d=" M 145.785 101.905 C 130.381 103.042 119.834 103.439 114.094 103.042 C 106.283 102.503 96.536 100.126 95.08 89.957 C 93.489 78.843 103.366 71.174 111.742 70.613 C 120.367 70.035 131.909 69.88 146.273 70.044 L 145.785 101.905 Z " fill="url(#_lgradient_9)" vector-effect="non-scaling-stroke" stroke-width="1.662" stroke="rgb(0,0,0)" stroke-linejoin="miter" stroke-linecap="square" stroke-miterlimit="3"/><path d=" M 109.095 82.169 C 107.438 83.658 106.648 86.2 107.522 88.615 C 108.333 90.856 110.201 91.974 112.151 91.885 C 115.1 91.75 117.447 88.351 116.47 84.818 C 115.451 81.13 111.527 79.984 109.095 82.169 Z " fill="rgb(23,23,23)" vector-effect="non-scaling-stroke" stroke-width="1.662" stroke="rgb(0,0,0)" stroke-linejoin="miter" stroke-linecap="square" stroke-miterlimit="3"/><path d=" M 11.927 35.097 L 98.793 3.909 L 98.253 35.097 L 11.927 35.097 Z " fill="rgb(12,91,12)" vector-effect="non-scaling-stroke" stroke-width="1.662" stroke="rgb(0,0,0)" stroke-linejoin="miter" stroke-linecap="square" stroke-miterlimit="3"/><linearGradient id="_lgradient_10" x1="0%" y1="50%" x2="100%" y2="50%"><stop offset="0%" stop-opacity="1" style="stop-color:rgb(5,98,5)"/><stop offset="27.72462329000282%" stop-opacity="1" style="stop-color:rgb(5,96,5)"/><stop offset="72.60869565217392%" stop-opacity="1" style="stop-color:rgb(5,97,5)"/><stop offset="96.52173913043478%" stop-opacity="1" style="stop-color:rgb(4,71,4)"/><stop offset="96.53435026129786%" stop-opacity="1" style="stop-color:rgb(5,94,5)"/><stop offset="100%" stop-opacity="1" style="stop-color:rgb(0,0,0)"/></linearGradient><path d=" M 39.443 35.666 L 129.547 7.323 L 128.468 34.485 L 39.443 35.666 Z " fill="url(#_lgradient_10)" vector-effect="non-scaling-stroke" stroke-width="1.662" stroke="rgb(0,0,0)" stroke-linejoin="miter" stroke-linecap="square" stroke-miterlimit="3"/></g></svg>