<?xml version="1.0" standalone="no"?><!-- Generator: Gravit.io --><svg xmlns="http://www.w3.org/2000/svg" xmlns:xlink="http://www.w3.org/1999/xlink" style="isolation:isolate" viewBox="0 0 100 100" width="100" height="100"><defs><clipPath id="_clipPath_FEaFfu5gO7P4YMQeX8JsA5aXyoKKJJhq"><rect width="100" height="100"/></clipPath></defs><g clip-path="url(#_clipPath_FEaFfu5gO7P4YMQeX8JsA5aXyoKKJJhq)"><linearGradient id="_lgradient_0" x1="50.49292818824747%" y1="-62.50953846498365%" x2="39.55542818824747%" y2="103.11546153501637%"><stop offset="0%" stop-opacity="1" style="stop-color:rgb(0,255,255)"/><stop offset="39.45059813912279%" stop-opacity="1" style="stop-color:rgb(0,212,212)"/><stop offset="65.99911386796636%" stop-opacity="1" style="stop-color:rgb(0,145,145)"/><stop offset="84.97120070890561%" stop-opacity="1" style="stop-color:rgb(0,92,92)"/><stop offset="100%" stop-opacity="1" style="stop-color:rgb(0,57,57)"/><stop offset="100%" stop-opacity="1" style="stop-color:rgb(0,0,0)"/></linearGradient><rect x="14.335" y="18.131" width="64" height="64" transform="matrix(1,0,0,1,0,0)" fill="url(#_lgradient_0)"/><linearGradient id="_lgradient_1" x1="0%" y1="50%" x2="156.99231295777264%" y2="49.792012625516044%"><stop offset="0%" stop-opacity="1" style="stop-color:rgb(255,255,255)"/><stop offset="44.79185629977771%" stop-opacity="1" style="stop-color:rgb(253,253,253)"/><stop offset="52.83546668263871%" stop-opacity="1" style="stop-color:rgb(250,250,250)"/><stop offset="57.22289052783561%" stop-opacity="1" style="stop-color:rgb(247,247,247)"/><stop offset="100%" stop-opacity="1" style="stop-color:rgb(0,0,0)"/></linearGradient><path d=" M 67.014 63.236 C 62.47 68.797 55.512 72.347 47.721 72.347 C 34.007 72.347 22.873 61.347 22.873 47.798 C 22.873 34.249 34.007 23.249 47.721 23.249 C 55.444 23.249 62.348 26.737 66.893 32.215 C 62.861 29.053 57.585 27.141 51.815 27.141 C 39.13 27.141 28.83 36.384 28.83 47.77 C 28.83 59.156 39.13 68.4 51.815 68.4 C 57.641 68.4 62.964 66.45 67.014 63.236 Z " fill-rule="evenodd" fill="url(#_lgradient_1)"/><path d=" M 62.662 35.805 C 61.386 34.037 59.665 32.526 57.539 31.405 C 49.392 27.106 38.365 30.127 32.929 38.146 C 28.15 45.195 29.273 53.775 35.16 58.658 C 31.94 53.798 32.039 46.99 36.007 41.137 C 41.472 33.076 52.219 29.86 59.992 33.961 C 60.983 34.484 61.878 35.101 62.662 35.805 Z " fill="rgb(255,255,255)"/><g id="Group"><g id="Group"><path d=" M 56.591 37.475 C 50.044 33.785 41.878 35.205 37.297 41.226 C 32.127 48.022 33.472 58.123 40.299 63.77 C 46.937 69.26 56.33 68.529 61.6 62.24 C 61.262 62.567 60.895 62.869 60.508 63.154 C 54.391 67.653 45.709 65.886 41.132 59.21 C 36.555 52.534 37.805 43.461 43.923 38.962 C 47.693 36.189 52.437 35.796 56.591 37.475 Z " fill="rgb(255,255,255)"/></g></g></g></svg>