<?xml version="1.0" standalone="no"?><!-- Generator: Gravit.io --><svg xmlns="http://www.w3.org/2000/svg" xmlns:xlink="http://www.w3.org/1999/xlink" style="isolation:isolate" viewBox="0 0 200 150" width="200" height="150"><defs><clipPath id="_clipPath_QIUVK29boBBPwmBDH4P70KrTBxpHFAxu"><rect width="200" height="150"/></clipPath></defs><g clip-path="url(#_clipPath_QIUVK29boBBPwmBDH4P70KrTBxpHFAxu)"><clipPath id="_clipPath_WX61DIXUj3jmpqexBWL0UiqtnmLvmi3B"><rect x="5" y="-4" width="195" height="150" transform="matrix(1,0,0,1,0,0)" fill="rgb(255,255,255)"/></clipPath><g clip-path="url(#_clipPath_WX61DIXUj3jmpqexBWL0UiqtnmLvmi3B)"><g id="Group"><path d=" M 31.584 10.159 L 106.483 11.191 L 106.371 36.631 L 75.962 21.504 C 78.678 61.613 77.906 93.957 74.431 109.986 C 71.607 123.021 64.954 132.93 53.773 134.954 Q 40.939 137.276 25.943 113.295 L 36.217 103.368 Q 43.328 119.224 51.009 118.023 C 58.498 116.851 61.102 107.384 61.992 99.973 C 64.059 82.755 64.345 56.613 62.814 21.504 L 32.406 35.686 L 31.584 10.159 Z " fill="rgb(210,12,38)" vector-effect="non-scaling-stroke" stroke-width="1.287" stroke="rgb(200,21,21)" stroke-opacity="100" stroke-linejoin="miter" stroke-linecap="square" stroke-miterlimit="3"/><path d=" M 84.75 46.898 L 84.75 134.548 L 135.887 134.111 L 135.887 114.052 L 96.297 126.177 L 96.71 47.39 L 84.75 46.898 Z " fill="rgb(210,12,38)" vector-effect="non-scaling-stroke" stroke-width="1.29" stroke="rgb(200,21,21)" stroke-opacity="100" stroke-linejoin="miter" stroke-linecap="square" stroke-miterlimit="3"/><path d=" M 118.415 22.046 L 118.415 44.86 L 142.279 32.258 L 142.279 133.814 L 154.21 133.814 L 153.358 32.234 L 175.518 43.057 L 175.943 20.912 L 118.415 22.046 Z " fill="rgb(210,12,38)" vector-effect="non-scaling-stroke" stroke-width="1.311" stroke="rgb(200,21,21)" stroke-opacity="100" stroke-linejoin="miter" stroke-linecap="square" stroke-miterlimit="3"/><path d=" M 53.981 45.249 L 53.981 45.249 L 53.981 45.249 Q 55.161 45.243 56.087 45.59 L 56.087 45.59 L 56.087 45.59 Q 57.011 45.938 57.657 46.571 L 57.657 46.571 L 57.657 46.571 Q 58.974 47.872 58.981 50.018 L 58.981 50.018 L 58.981 50.018 Q 58.99 52.282 57.685 53.489 L 57.685 53.489 L 57.685 53.489 Q 56.396 54.683 54.018 54.692 L 54.018 54.692 L 54.018 54.692 Q 51.703 54.703 50.374 53.37 L 50.374 53.37 L 50.374 53.37 Q 49.077 52.069 49.068 49.917 L 49.068 49.917 L 49.068 49.917 Q 49.06 47.758 50.347 46.511 L 50.347 46.511 L 50.347 46.511 Q 51.647 45.26 53.981 45.249 Z  M 53.974 46.417 L 53.974 46.417 L 53.974 46.417 Q 53.006 46.414 52.261 46.66 L 52.261 46.66 L 52.261 46.66 Q 51.517 46.907 51.018 47.375 L 51.018 47.375 L 51.018 47.375 Q 50.017 48.317 50.049 50.004 L 50.049 50.004 L 50.049 50.004 Q 50.068 51.664 51.09 52.598 L 51.09 52.598 L 51.09 52.598 Q 52.148 53.566 54.082 53.531 L 54.082 53.531 L 54.082 53.531 Q 58.015 53.461 58.001 49.878 L 58.001 49.878 L 58.001 49.878 Q 57.994 48.243 56.942 47.336 L 56.942 47.336 L 56.942 47.336 Q 55.884 46.422 53.974 46.417 Z  M 53.566 56.867 L 58.921 56.844 L 58.925 57.979 L 53.57 58.003 L 53.57 58.003 Q 52.546 58.007 52.075 58.101 L 52.075 58.101 L 52.075 58.101 Q 51.605 58.195 51.258 58.358 L 51.258 58.358 L 51.258 58.358 Q 50.913 58.519 50.651 58.809 L 50.651 58.809 L 50.651 58.809 Q 50.099 59.442 50.103 60.636 L 50.103 60.636 L 50.103 60.636 Q 50.11 62.362 51.28 62.902 L 51.28 62.902 L 51.28 62.902 Q 51.923 63.194 52.566 63.218 L 52.566 63.218 L 52.566 63.218 Q 53.209 63.241 53.59 63.239 L 53.59 63.239 L 58.947 63.216 L 58.951 64.358 L 53.595 64.382 L 53.595 64.382 Q 52.253 64.387 51.647 64.246 L 51.647 64.246 L 51.647 64.246 Q 51.041 64.104 50.6 63.87 L 50.6 63.87 L 50.6 63.87 Q 50.159 63.634 49.833 63.216 L 49.833 63.216 L 49.833 63.216 Q 49.117 62.313 49.111 60.64 L 49.111 60.64 L 49.111 60.64 Q 49.1 58.186 50.571 57.393 L 50.571 57.393 L 50.571 57.393 Q 51.387 56.961 52.529 56.898 L 52.529 56.898 L 52.529 56.898 Q 53.06 56.87 53.566 56.867 L 53.566 56.867 Z  M 52.863 70.351 L 52.863 70.351 L 52.863 70.351 Q 52.837 70.147 52.836 69.741 L 52.836 69.741 L 52.83 68.25 L 49.265 68.266 L 49.261 67.13 L 58.962 67.089 L 58.972 69.864 L 58.972 69.864 Q 59.022 72.897 57.165 73.495 L 57.165 73.495 L 57.165 73.495 Q 56.584 73.681 55.879 73.677 L 55.879 73.677 L 55.879 73.677 Q 54.755 73.63 54.048 73.114 L 54.048 73.114 L 54.048 73.114 Q 53.341 72.599 53.037 71.538 L 53.037 71.538 L 52.613 71.815 L 52.613 71.815 Q 52.314 72.02 51.941 72.297 L 51.941 72.297 L 49.838 74.005 L 49.159 72.84 L 49.159 72.84 Q 49.732 72.504 50.311 72.114 L 50.311 72.114 L 52.172 70.845 L 52.172 70.845 Q 52.515 70.614 52.863 70.351 Z  M 53.779 68.246 L 53.785 69.737 L 53.785 69.737 Q 53.774 71.784 54.925 72.304 L 54.925 72.304 L 54.925 72.304 Q 55.325 72.485 55.864 72.5 L 55.864 72.5 L 55.864 72.5 Q 56.405 72.513 56.804 72.378 L 56.804 72.378 L 56.804 72.378 Q 57.203 72.241 57.47 71.925 L 57.47 71.925 L 57.47 71.925 Q 58.029 71.286 58.011 69.868 L 58.011 69.868 L 58.005 68.227 L 53.779 68.246 Z  M 49.295 75.727 L 58.995 75.685 L 59.002 77.372 L 51.859 81.689 L 50.339 82.496 L 59.022 82.458 L 59.027 83.594 L 49.327 83.636 L 49.32 81.969 L 56.5 77.62 L 57.976 76.825 L 49.3 76.863 L 49.295 75.727 Z  M 49.332 85.015 L 59.048 88.995 L 59.054 90.452 L 49.369 94.517 L 49.364 93.218 L 52.051 92.149 L 52.032 87.352 L 49.337 86.32 L 49.332 85.015 Z  M 52.925 87.735 L 52.942 91.765 L 55.546 90.71 L 55.546 90.71 Q 56.114 90.484 56.532 90.332 L 56.532 90.332 L 57.367 90.039 L 57.367 90.039 Q 57.785 89.899 58.253 89.727 L 58.253 89.727 L 58.253 89.727 Q 57.84 89.578 57.42 89.442 L 57.42 89.442 L 57.42 89.442 Q 57.42 89.442 56.533 89.144 L 56.533 89.144 L 56.533 89.144 Q 56.533 89.144 52.925 87.735 L 52.925 87.735 Z  M 49.397 101.684 L 49.375 95.915 L 59.075 95.872 L 59.08 97.008 L 50.39 97.046 L 50.41 101.726 L 49.397 101.684 Z " fill-rule="evenodd" fill="rgb(210,12,38)" vector-effect="non-scaling-stroke" stroke-width="1.311" stroke="rgb(210,12,38)" stroke-opacity="100" stroke-linejoin="miter" stroke-linecap="square" stroke-miterlimit="3"/><path d=" M 101.198 55.832 L 110.898 55.686 L 110.977 61.505 L 109.977 61.462 L 109.915 56.836 L 106.669 56.885 L 106.725 61.026 L 105.739 61.04 L 105.683 56.899 L 102.206 56.952 L 102.271 61.703 L 101.279 61.777 L 101.198 55.832 Z  M 101.348 66.79 L 101.306 63.68 L 111.005 63.534 L 111.048 66.696 L 111.048 66.696 Q 111.1 70.457 108.27 71.281 L 108.27 71.281 L 108.27 71.281 Q 107.374 71.536 106.257 71.554 L 106.257 71.554 L 106.001 71.558 L 106.001 71.558 Q 103.811 71.59 102.602 70.355 L 102.602 70.355 L 102.602 70.355 Q 101.38 69.108 101.348 66.79 L 101.348 66.79 Z  M 110.035 64.684 L 102.3 64.801 L 102.328 66.776 L 102.328 66.776 Q 102.353 68.554 103.358 69.497 L 103.358 69.497 L 103.358 69.497 Q 104.325 70.409 105.986 70.383 L 105.986 70.383 L 106.242 70.379 L 106.242 70.379 Q 108.232 70.309 109.139 69.469 L 109.139 69.469 L 109.139 69.469 Q 110.087 68.589 110.062 66.686 L 110.062 66.686 L 110.035 64.684 Z  M 111.294 77.864 L 111.294 77.864 L 111.291 78.126 L 111.291 78.126 Q 111.257 79.715 110.707 81.05 L 110.707 81.05 L 109.778 80.683 L 109.778 80.683 Q 110.298 79.427 110.311 78.28 L 110.311 78.28 L 110.311 78.28 Q 110.322 77.13 110.017 76.429 L 110.017 76.429 L 110.017 76.429 Q 109.711 75.728 109.155 75.29 L 109.155 75.29 L 109.155 75.29 Q 108.07 74.434 106.073 74.464 L 106.073 74.464 L 106.073 74.464 Q 104.214 74.571 103.314 75.445 L 103.314 75.445 L 103.314 75.445 Q 102.236 76.497 102.346 78.675 L 102.346 78.675 L 102.346 78.675 Q 102.397 79.62 102.743 80.27 L 102.743 80.27 L 105.826 80.224 L 105.802 78.446 L 106.795 78.43 L 106.835 81.337 L 102.054 81.41 L 102.054 81.41 Q 101.563 80.255 101.414 78.952 L 101.414 78.952 L 101.414 78.952 Q 101.371 78.546 101.379 78.191 L 101.379 78.191 L 101.379 78.191 Q 101.454 74.515 104.139 73.621 L 104.139 73.621 L 104.139 73.621 Q 104.995 73.332 105.87 73.309 L 105.87 73.309 L 105.87 73.309 Q 106.743 73.286 107.397 73.378 L 107.397 73.378 L 107.397 73.378 Q 108.051 73.469 108.627 73.687 L 108.627 73.687 L 108.627 73.687 Q 109.205 73.905 109.691 74.258 L 109.691 74.258 L 109.691 74.258 Q 110.177 74.612 110.527 75.125 L 110.527 75.125 L 110.527 75.125 Q 111.271 76.191 111.294 77.864 Z  M 101.582 83.879 L 111.281 83.732 L 111.36 89.552 L 110.361 89.509 L 110.298 84.882 L 107.052 84.931 L 107.108 89.072 L 106.123 89.087 L 106.066 84.946 L 102.589 84.999 L 102.654 89.75 L 101.662 89.824 L 101.582 83.879 Z  M 105.321 94.908 L 105.321 94.908 L 105.321 94.908 Q 105.294 94.704 105.288 94.298 L 105.288 94.298 L 105.267 92.808 L 101.705 92.863 L 101.689 91.727 L 111.389 91.581 L 111.426 94.356 L 111.426 94.356 Q 111.505 97.387 109.652 98.007 L 109.652 98.007 L 109.652 98.007 Q 109.075 98.199 108.37 98.203 L 108.37 98.203 L 108.37 98.203 Q 107.245 98.167 106.533 97.66 L 106.533 97.66 L 106.533 97.66 Q 105.821 97.152 105.507 96.093 L 105.507 96.093 L 105.086 96.375 L 105.086 96.375 Q 104.789 96.583 104.419 96.864 L 104.419 96.864 L 102.332 98.595 L 101.642 97.438 L 101.642 97.438 Q 102.212 97.094 102.786 96.699 L 102.786 96.699 L 104.636 95.41 L 104.636 95.41 Q 104.976 95.176 105.321 94.908 Z  M 106.217 92.794 L 106.238 94.283 L 106.238 94.283 Q 106.247 96.332 107.402 96.839 L 107.402 96.839 L 107.402 96.839 Q 107.804 97.016 108.345 97.025 L 108.345 97.025 L 108.345 97.025 Q 108.884 97.033 109.282 96.892 L 109.282 96.892 L 109.282 96.892 Q 109.679 96.753 109.944 96.433 L 109.944 96.433 L 109.944 96.433 Q 110.496 95.787 110.464 94.371 L 110.464 94.371 L 110.442 92.73 L 106.217 92.794 Z " fill-rule="evenodd" fill="rgb(210,12,38)" vector-effect="non-scaling-stroke" stroke-width="1.311" stroke="rgb(210,12,38)" stroke-opacity="100" stroke-linejoin="miter" stroke-linecap="square" stroke-miterlimit="3"/><path d=" M 163.433 45.746 L 163.433 45.746 L 163.433 45.746 Q 163.408 45.543 163.408 45.136 L 163.408 45.136 L 163.408 43.647 L 159.844 43.645 L 159.844 42.51 L 169.545 42.512 L 169.545 45.288 L 169.545 45.288 Q 169.581 48.32 167.72 48.91 L 167.72 48.91 L 167.72 48.91 Q 167.14 49.094 166.434 49.088 L 166.434 49.088 L 166.434 49.088 Q 165.311 49.035 164.606 48.516 L 164.606 48.516 L 164.606 48.516 Q 163.901 47.997 163.601 46.934 L 163.601 46.934 L 163.177 47.21 L 163.177 47.21 Q 162.877 47.413 162.502 47.688 L 162.502 47.688 L 160.393 49.387 L 159.719 48.219 L 159.719 48.219 Q 160.293 47.885 160.873 47.497 L 160.873 47.497 L 162.74 46.238 L 162.74 46.238 Q 163.084 46.008 163.433 45.746 Z  M 164.357 43.647 L 164.357 45.136 L 164.357 45.136 Q 164.338 47.184 165.486 47.708 L 165.486 47.708 L 165.486 47.708 Q 165.886 47.893 166.425 47.91 L 166.425 47.91 L 166.425 47.91 Q 166.966 47.926 167.365 47.792 L 167.365 47.792 L 167.365 47.792 Q 167.765 47.657 168.034 47.342 L 168.034 47.342 L 168.034 47.342 Q 168.595 46.706 168.583 45.288 L 168.583 45.288 L 168.583 43.648 L 164.357 43.647 Z  M 159.843 51.14 L 169.544 51.143 L 169.542 52.278 L 159.843 52.276 L 159.843 51.14 Z  M 159.842 53.68 L 169.542 57.706 L 169.541 59.163 L 159.84 63.183 L 159.84 61.883 L 162.531 60.828 L 162.531 56.03 L 159.842 54.985 L 159.842 53.68 Z  M 163.425 56.418 L 163.424 60.448 L 166.033 59.405 L 166.033 59.405 Q 166.601 59.182 167.02 59.031 L 167.02 59.031 L 167.856 58.742 L 167.856 58.742 Q 168.274 58.604 168.742 58.434 L 168.742 58.434 L 168.742 58.434 Q 168.33 58.282 167.912 58.145 L 167.912 58.145 L 167.912 58.145 Q 167.912 58.145 167.026 57.843 L 167.026 57.843 L 167.026 57.843 Q 167.026 57.843 163.425 56.418 L 163.425 56.418 Z  M 159.838 70.349 L 159.839 64.581 L 169.54 64.583 L 169.54 65.719 L 160.85 65.716 L 160.849 70.395 L 159.838 70.349 Z  M 159.838 72.626 L 169.545 72.629 L 169.544 75.156 L 169.544 75.156 Q 169.544 76.941 169.037 77.794 L 169.037 77.794 L 169.037 77.794 Q 168.45 78.785 167.077 78.824 L 167.077 78.824 L 167.077 78.824 Q 165.811 78.844 165.205 77.925 L 165.205 77.925 L 165.205 77.925 Q 165.018 77.642 164.918 77.314 L 164.918 77.314 L 164.918 77.314 Q 164.886 78.155 164.343 78.765 L 164.343 78.765 L 164.343 78.765 Q 163.693 79.487 162.576 79.446 L 162.576 79.446 L 162.576 79.446 Q 161.123 79.407 160.46 78.435 L 160.46 78.435 L 160.46 78.435 Q 159.812 77.464 159.838 75.429 L 159.838 75.429 L 159.838 72.626 Z  M 165.219 73.75 L 165.219 75.457 L 165.219 75.457 Q 165.161 77.715 167.077 77.642 L 167.077 77.642 L 167.077 77.642 Q 168.326 77.624 168.551 76.219 L 168.551 76.219 L 168.551 76.219 Q 168.621 75.753 168.621 75.156 L 168.621 75.156 L 168.621 73.751 L 165.219 73.75 Z  M 160.774 73.75 L 160.774 75.43 L 160.774 75.43 Q 160.748 76.788 161.098 77.464 L 161.098 77.464 L 161.098 77.464 Q 161.504 78.239 162.452 78.265 L 162.452 78.265 L 162.452 78.265 Q 163.719 78.298 164.094 77.386 L 164.094 77.386 L 164.094 77.386 Q 164.294 76.887 164.31 76.286 L 164.31 76.286 L 164.31 76.286 Q 164.325 75.687 164.325 75.3 L 164.325 75.3 L 164.326 73.75 L 160.774 73.75 Z  M 159.837 80.587 L 169.536 84.613 L 169.536 86.07 L 159.834 90.091 L 159.834 88.792 L 162.525 87.735 L 162.526 82.938 L 159.835 81.894 L 159.837 80.587 Z  M 163.419 83.325 L 163.417 87.355 L 166.027 86.312 L 166.027 86.312 Q 166.595 86.089 167.014 85.938 L 167.014 85.938 L 167.85 85.649 L 167.85 85.649 Q 168.268 85.512 168.737 85.341 L 168.737 85.341 L 168.737 85.341 Q 168.324 85.191 167.906 85.052 L 167.906 85.052 L 167.906 85.052 Q 167.906 85.052 167.02 84.75 L 167.02 84.75 L 167.02 84.75 Q 167.02 84.75 163.419 83.325 L 163.419 83.325 Z  M 159.833 97.258 L 159.834 91.489 L 169.535 91.49 L 169.533 92.626 L 160.845 92.625 L 160.844 97.304 L 159.833 97.258 Z  M 159.833 98.531 L 169.532 102.556 L 169.531 104.013 L 159.83 108.033 L 159.83 106.734 L 162.521 105.679 L 162.522 100.88 L 159.831 99.837 L 159.833 98.531 Z  M 163.415 101.269 L 163.414 105.298 L 166.023 104.255 L 166.023 104.255 Q 166.592 104.032 167.01 103.882 L 167.01 103.882 L 167.846 103.593 L 167.846 103.593 Q 168.264 103.455 168.733 103.285 L 168.733 103.285 L 168.733 103.285 Q 168.32 103.133 167.902 102.996 L 167.902 102.996 L 167.902 102.996 Q 167.902 102.996 167.016 102.693 L 167.016 102.693 L 167.016 102.693 Q 167.016 102.693 163.415 101.269 L 163.415 101.269 Z  M 159.83 109.412 L 169.531 109.414 L 169.529 111.101 L 162.369 115.384 L 160.845 116.185 L 169.528 116.187 L 169.528 117.322 L 159.828 117.32 L 159.829 115.653 L 167.026 111.337 L 168.507 110.55 L 159.829 110.547 L 159.83 109.412 Z  M 159.701 124.014 L 159.701 124.014 L 159.701 124.014 Q 159.702 119.164 164.659 119.165 L 164.659 119.165 L 164.659 119.165 Q 168.686 119.166 169.453 122.422 L 169.453 122.422 L 169.453 122.422 Q 169.615 123.125 169.614 123.912 L 169.614 123.912 L 169.614 123.912 Q 169.614 125.427 169.046 126.904 L 169.046 126.904 L 168.122 126.556 L 168.122 126.556 Q 168.635 125.191 168.635 124.154 L 168.635 124.154 L 168.635 124.154 Q 168.635 123.118 168.438 122.445 L 168.438 122.445 L 168.438 122.445 Q 168.242 121.771 167.749 121.293 L 167.749 121.293 L 167.749 121.293 Q 166.813 120.38 164.659 120.34 L 164.659 120.34 L 164.659 120.34 Q 162.673 120.379 161.712 121.219 L 161.712 121.219 L 161.712 121.219 Q 160.694 122.125 160.694 124.035 L 160.694 124.035 L 160.694 124.035 Q 160.694 125.346 161.273 126.81 L 161.273 126.81 L 160.331 127.158 L 160.331 127.158 Q 159.701 125.609 159.701 124.014 Z  M 159.825 128.818 L 169.526 128.821 L 169.524 134.642 L 168.526 134.583 L 168.527 129.955 L 165.281 129.955 L 165.28 134.096 L 164.293 134.096 L 164.294 129.955 L 160.817 129.954 L 160.817 134.705 L 159.824 134.764 L 159.825 128.818 Z " fill-rule="evenodd" fill="rgb(210,12,38)" vector-effect="non-scaling-stroke" stroke-width="1.311" stroke="rgb(210,12,38)" stroke-opacity="100" stroke-linejoin="miter" stroke-linecap="square" stroke-miterlimit="3"/></g></g></g></svg>