<?xml version="1.0" standalone="no"?><!-- Generator: Gravit.io --><svg xmlns="http://www.w3.org/2000/svg" xmlns:xlink="http://www.w3.org/1999/xlink" style="isolation:isolate" viewBox="0 0 400 400" width="400" height="400"><defs><clipPath id="_clipPath_doWS7usr82c6XZmgsaTtkaO2YGpwiotz"><rect width="400" height="400"/></clipPath></defs><g clip-path="url(#_clipPath_doWS7usr82c6XZmgsaTtkaO2YGpwiotz)"><path d=" M 122.284 79.023 L 226.784 79.023 L 225.284 170.523 L 120.284 170.523 L 122.284 79.023 Z " fill="rgb(233,79,55)" vector-effect="non-scaling-stroke" stroke-width="1" stroke="rgb(255,255,255)" stroke-linejoin="miter" stroke-linecap="square" stroke-miterlimit="3"/><line x1="174.864" y1="79.432" x2="173.614" y2="170.682" vector-effect="non-scaling-stroke" stroke-width="1" stroke="rgb(255,255,255)" stroke-linejoin="miter" stroke-linecap="square" stroke-miterlimit="3"/><path d=" M 122.663 148.658 L 148.876 134.921 L 169.79 175.451 L 144.876 190.413 L 122.663 148.658 Z " fill="rgb(255,178,56)" vector-effect="non-scaling-stroke" stroke-width="1" stroke="rgb(255,255,255)" stroke-linejoin="miter" stroke-linecap="square" stroke-miterlimit="3"/><path d=" M 220.886 79.023 L 174.553 79.023 Q 193.728 65.623 203 62.432 Q 212.272 59.24 231.25 58.682 L 229.25 172.432 Q 218.312 176.424 213.75 180.682 Q 209.633 184.524 205 193.932 L 167.886 170.356 L 225.22 170.356 L 226.886 79.023 L 220.886 79.023 Z " fill="rgb(6,6,70)" vector-effect="non-scaling-stroke" stroke-width="1" stroke="rgb(255,255,255)" stroke-linejoin="miter" stroke-linecap="square" stroke-miterlimit="3"/><path d=" M 128.667 151.424 L 148 141.091 L 149.667 144.758 L 130.667 155.091 L 128.667 151.424 Z " fill="rgb(255,255,255)" vector-effect="non-scaling-stroke" stroke-width="1" stroke="rgb(244,168,53)" stroke-linejoin="miter" stroke-linecap="square" stroke-miterlimit="3"/><path d=" M 134.537 160.703 L 139.085 158.292 L 140.848 161.63 L 136.497 164.105 L 134.537 160.703 Z " fill="rgb(255,255,255)" vector-effect="non-scaling-stroke" stroke-width="1" stroke="rgb(238,166,57)" stroke-linejoin="miter" stroke-linecap="square" stroke-miterlimit="3"/><path d=" M 149.412 173.078 L 153.96 170.667 L 155.723 174.005 L 151.372 176.48 L 149.412 173.078 Z " fill="rgb(255,255,255)" vector-effect="non-scaling-stroke" stroke-width="1" stroke="rgb(217,165,87)" stroke-linejoin="miter" stroke-linecap="square" stroke-miterlimit="3"/><path d=" M 138.912 168.578 L 143.46 166.167 L 145.223 169.505 L 140.872 171.98 L 138.912 168.578 Z " fill="rgb(255,255,255)" vector-effect="non-scaling-stroke" stroke-width="1" stroke="rgb(219,162,78)" stroke-linejoin="miter" stroke-linecap="square" stroke-miterlimit="3"/><path d=" M 145.662 164.953 L 150.21 162.542 L 151.973 165.88 L 147.622 168.355 L 145.662 164.953 Z " fill="rgb(255,255,255)" vector-effect="non-scaling-stroke" stroke-width="1" stroke="rgb(225,172,92)" stroke-linejoin="miter" stroke-linecap="square" stroke-miterlimit="3"/><path d=" M 151.912 161.703 L 156.46 159.292 L 158.223 162.63 L 153.872 165.105 L 151.912 161.703 Z " fill="rgb(255,255,255)" vector-effect="non-scaling-stroke" stroke-width="1" stroke="rgb(221,169,90)" stroke-linejoin="miter" stroke-linecap="square" stroke-miterlimit="3"/><path d=" M 142.912 176.453 L 147.46 174.042 L 149.223 177.38 L 144.872 179.855 L 142.912 176.453 Z " fill="rgb(255,255,255)" vector-effect="non-scaling-stroke" stroke-width="1" stroke="rgb(225,172,92)" stroke-linejoin="miter" stroke-linecap="square" stroke-miterlimit="3"/><path d=" M 155.912 169.578 L 160.46 167.167 L 162.223 170.505 L 157.872 172.98 L 155.912 169.578 Z " fill="rgb(255,255,255)" vector-effect="non-scaling-stroke" stroke-width="1" stroke="rgb(227,174,93)" stroke-linejoin="miter" stroke-linecap="square" stroke-miterlimit="3"/><path d=" M 141.287 156.828 L 145.835 154.417 L 147.598 157.755 L 143.247 160.23 L 141.287 156.828 Z " fill="rgb(255,255,255)" vector-effect="non-scaling-stroke" stroke-width="1" stroke="rgb(236,174,82)" stroke-linejoin="miter" stroke-linecap="square" stroke-miterlimit="3"/><path d=" M 147.787 153.453 L 152.335 151.042 L 154.098 154.38 L 149.747 156.855 L 147.787 153.453 Z " fill="rgb(255,255,255)" vector-effect="non-scaling-stroke" stroke-width="1" stroke="rgb(242,176,78)" stroke-linejoin="miter" stroke-linecap="square" stroke-miterlimit="3"/><path d=" M 120.636 110.273 L 110.303 119.939 L 120.636 128.939 L 120.636 110.273 Z " fill="rgb(6,6,70)" vector-effect="non-scaling-stroke" stroke-width="1" stroke="rgb(0,0,0)" stroke-linejoin="miter" stroke-linecap="square" stroke-miterlimit="3"/><path d=" M 246.224 118.537 C 244.996 118.443 243.421 119.126 241.818 119.93 L 246.215 124.808 C 247.675 122.675 248.874 120.534 247.663 119.192 C 247.284 118.771 246.782 118.579 246.224 118.537 Z  M 239.492 119.017 C 237.905 118.992 235.316 119.438 232.55 121.847 C 229.724 124.307 228.426 126.376 227.572 127.749 C 227.159 128.415 226.827 128.929 226.487 129.252 C 225.834 129.871 225.011 129.538 224.924 129.499 C 224.748 129.412 224.545 129.398 224.359 129.46 C 224.174 129.521 224.02 129.652 223.933 129.825 C 223.846 129.998 223.832 130.197 223.895 130.38 C 223.957 130.563 224.091 130.714 224.267 130.8 C 224.304 130.816 224.773 131.034 225.407 131.072 C 225.76 131.094 226.163 131.047 226.573 130.893 C 227.147 130.363 227.725 129.837 228.309 129.316 C 228.477 129.065 228.634 128.805 228.82 128.507 C 229.678 127.127 230.863 125.244 233.525 122.929 C 236.055 120.726 238.35 120.385 239.592 120.431 C 239.782 120.301 239.972 120.202 240.121 120.1 L 240.651 119.723 L 241.297 119.375 C 241.23 119.32 241.177 119.258 241.098 119.227 C 241.039 119.204 240.445 119.032 239.492 119.017 Z  M 240.547 120.694 C 236.866 123.199 233.337 125.915 229.98 128.827 C 225.051 133.12 219.415 138.878 217.759 140.587 L 222.459 145.8 C 224.385 144.395 230.878 139.583 235.805 135.291 C 239.151 132.365 242.318 129.248 245.29 125.956 L 240.547 120.694 Z  M 216.877 141.806 C 214.557 144.838 213.893 146.993 213.695 147.839 C 213.694 147.842 213.672 147.835 213.672 147.838 L 212.623 148.73 C 212.319 148.995 212.29 149.47 212.56 149.771 C 212.696 149.921 212.887 149.995 213.078 150.006 C 213.268 150.018 213.467 149.967 213.62 149.835 L 214.646 148.919 C 214.649 148.919 214.644 148.897 214.647 148.897 C 215.525 148.804 217.784 148.416 221.124 146.515 L 216.877 141.806 Z " fill="rgb(6,6,70)" vector-effect="non-scaling-stroke" stroke-width="0.732" stroke="rgb(255,255,255)" stroke-linejoin="miter" stroke-linecap="butt" stroke-miterlimit="4"/><path d=" M 171.068 87.864 L 179.068 87.989 L 179.068 89.489 L 171.068 89.364 L 171.068 87.864 Z " fill="rgb(233,79,55)" vector-effect="non-scaling-stroke" stroke-width="1" stroke="rgb(255,255,255)" stroke-linejoin="miter" stroke-linecap="square" stroke-miterlimit="3"/><path d=" M 178.611 102.567 L 174.191 102.561 L 170.61 102.556 L 170.576 104.302 L 178.577 104.314 L 178.611 102.567 Z " fill="rgb(233,79,55)" vector-effect="non-scaling-stroke" stroke-width="1" stroke="rgb(255,255,255)" stroke-linejoin="miter" stroke-linecap="square" stroke-miterlimit="3"/><path d=" M 171.058 116.413 L 179.059 116.439 L 179.078 117.939 L 171.077 117.913 L 171.058 116.413 Z " fill="rgb(233,79,55)" vector-effect="non-scaling-stroke" stroke-width="1" stroke="rgb(255,255,255)" stroke-linejoin="miter" stroke-linecap="square" stroke-miterlimit="3"/><path d=" M 170.568 130.364 L 178.568 130.489 L 178.568 131.989 L 170.568 131.864 L 170.568 130.364 Z " fill="rgb(233,79,55)" vector-effect="non-scaling-stroke" stroke-width="1" stroke="rgb(255,255,255)" stroke-linejoin="miter" stroke-linecap="square" stroke-miterlimit="3"/><path d=" M 170.068 142.614 L 178.068 142.739 L 178.068 144.239 L 170.068 144.114 L 170.068 142.614 Z " fill="rgb(233,79,55)" vector-effect="non-scaling-stroke" stroke-width="1" stroke="rgb(255,255,255)" stroke-linejoin="miter" stroke-linecap="square" stroke-miterlimit="3"/><path d=" M 169.818 154.614 L 177.818 154.739 L 177.818 156.239 L 169.818 156.114 L 169.818 154.614 Z " fill="rgb(233,79,55)" vector-effect="non-scaling-stroke" stroke-width="1" stroke="rgb(255,255,255)" stroke-linejoin="miter" stroke-linecap="square" stroke-miterlimit="3"/><path d=" M 185.386 96.42 L 196.511 96.17 L 196.511 97.92 L 185.386 98.17 L 185.386 96.42 Z " fill="rgb(255,255,255)" vector-effect="non-scaling-stroke" stroke-width="1" stroke="rgb(255,255,255)" stroke-linejoin="miter" stroke-linecap="square" stroke-miterlimit="3"/><path d=" M 201.136 95.67 L 212.261 95.42 L 212.261 97.17 L 201.136 97.42 L 201.136 95.67 Z " fill="rgb(255,255,255)" vector-effect="non-scaling-stroke" stroke-width="1" stroke="rgb(255,255,255)" stroke-linejoin="miter" stroke-linecap="square" stroke-miterlimit="3"/><path d=" M 186.523 102.42 L 213.023 102.17 L 213.023 103.92 L 186.523 104.17 L 186.523 102.42 Z " fill="rgb(255,255,255)" vector-effect="non-scaling-stroke" stroke-width="1" stroke="rgb(255,255,255)" stroke-linejoin="miter" stroke-linecap="square" stroke-miterlimit="3"/><path d=" M 185.773 124.17 L 212.273 123.92 L 212.273 125.67 L 185.773 125.92 L 185.773 124.17 Z " fill="rgb(255,255,255)" vector-effect="non-scaling-stroke" stroke-width="1" stroke="rgb(255,255,255)" stroke-linejoin="miter" stroke-linecap="square" stroke-miterlimit="3"/><path d=" M 186.106 148.837 L 212.606 148.587 L 212.606 150.337 L 186.106 150.587 L 186.106 148.837 Z " fill="rgb(255,255,255)" vector-effect="non-scaling-stroke" stroke-width="1" stroke="rgb(255,255,255)" stroke-linejoin="miter" stroke-linecap="square" stroke-miterlimit="3"/><path d=" M 185.636 118.42 L 196.761 118.17 L 196.761 119.92 L 185.636 120.17 L 185.636 118.42 Z " fill="rgb(255,255,255)" vector-effect="non-scaling-stroke" stroke-width="1" stroke="rgb(255,255,255)" stroke-linejoin="miter" stroke-linecap="square" stroke-miterlimit="3"/><path d=" M 186.636 143.087 L 197.761 142.837 L 197.761 144.587 L 186.636 144.837 L 186.636 143.087 Z " fill="rgb(255,255,255)" vector-effect="non-scaling-stroke" stroke-width="1" stroke="rgb(255,255,255)" stroke-linejoin="miter" stroke-linecap="square" stroke-miterlimit="3"/><path d=" M 201.303 143.087 L 212.428 142.837 L 212.428 144.587 L 201.303 144.837 L 201.303 143.087 Z " fill="rgb(255,255,255)" vector-effect="non-scaling-stroke" stroke-width="1" stroke="rgb(255,255,255)" stroke-linejoin="miter" stroke-linecap="square" stroke-miterlimit="3"/><path d=" M 201.553 117.837 L 212.678 117.587 L 212.678 119.337 L 201.553 119.587 L 201.553 117.837 Z " fill="rgb(255,255,255)" vector-effect="non-scaling-stroke" stroke-width="1" stroke="rgb(255,255,255)" stroke-linejoin="miter" stroke-linecap="square" stroke-miterlimit="3"/><path d=" M 146.333 99.333 C 139.733 99.333 134.333 104.733 134.333 111.333 C 134.333 117.933 139.733 123.333 146.333 123.333 C 152.933 123.333 158.333 117.933 158.333 111.333 C 158.333 104.733 152.933 99.333 146.333 99.333 Z  M 146.333 101.333 C 151.833 101.333 156.333 105.833 156.333 111.333 C 156.333 116.833 151.833 121.333 146.333 121.333 C 140.833 121.333 136.333 116.833 136.333 111.333 C 136.333 105.833 140.833 101.333 146.333 101.333 Z  M 146.133 103.333 L 146.133 105.133 C 145.033 105.233 144.233 105.633 143.533 106.233 C 142.833 106.933 142.533 107.633 142.533 108.633 C 142.533 109.633 142.833 110.433 143.433 111.033 C 144.033 111.533 145.033 112.033 146.333 112.533 C 146.933 112.733 147.333 113.033 147.533 113.233 C 147.733 113.433 147.833 113.833 147.833 114.233 C 147.833 114.633 147.733 114.933 147.533 115.133 C 147.333 115.333 147.033 115.433 146.533 115.433 C 145.933 115.433 145.533 115.333 145.233 115.033 C 144.933 114.733 144.733 114.233 144.733 113.633 L 141.933 113.633 L 141.933 113.733 C 141.933 115.033 142.333 115.933 143.033 116.533 C 143.733 117.133 144.733 117.533 145.833 117.633 L 145.833 119.333 L 147.133 119.333 L 147.133 117.733 C 148.233 117.633 149.133 117.333 149.733 116.733 C 150.333 116.133 150.633 115.333 150.633 114.333 C 150.633 113.233 150.233 112.433 149.633 111.833 C 149.033 111.233 148.033 110.733 146.733 110.333 C 146.133 110.033 145.733 109.733 145.533 109.533 C 145.333 109.333 145.233 109.033 145.233 108.633 C 145.233 108.233 145.333 107.933 145.533 107.633 C 145.733 107.333 146.033 107.233 146.533 107.233 C 146.933 107.233 147.233 107.433 147.533 107.633 C 147.833 107.833 147.933 108.233 147.933 108.833 L 150.733 108.833 C 150.733 107.833 150.433 107.033 149.833 106.333 C 149.233 105.633 148.333 105.233 147.333 105.133 L 147.333 103.333 L 146.133 103.333 Z " fill="rgb(255,255,255)"/></g></svg>