<?xml version="1.0" standalone="no"?><!-- Generator: Gravit.io --><svg xmlns="http://www.w3.org/2000/svg" xmlns:xlink="http://www.w3.org/1999/xlink" style="isolation:isolate" viewBox="0 0 200 200" width="200" height="200"><defs><clipPath id="_clipPath_M7PTMoCllpswTTjqQSXvXO7CpS3CKyrh"><rect width="200" height="200"/></clipPath></defs><g clip-path="url(#_clipPath_M7PTMoCllpswTTjqQSXvXO7CpS3CKyrh)"><g id="Group"><path d=" M -0.523 45.777 L 20.582 46.509 L 20.471 85.947 L -0.636 85.215 L -0.523 45.777 Z " fill="rgb(121,134,203)"/></g><path d=" M 87.924 166.364 L 86.061 119.689 L 118.364 92.463 L 152.53 119.041 L 152.53 165.067 L 87.924 166.364 Z " fill="rgb(255,255,255)" vector-effect="non-scaling-stroke" stroke-width="1.929" stroke="rgb(0,0,0)" stroke-linejoin="miter" stroke-linecap="square" stroke-miterlimit="3"/><path d=" M 86.682 121.07 L 77.364 129.719 L 77.985 118.409 L 118.364 81.818 L 159.364 117.424 L 159.364 127.875 L 118.364 92.463 L 86.682 121.07 Z " fill="rgb(0,165,184)" vector-effect="non-scaling-stroke" stroke-width="1.929" stroke="rgb(0,0,0)" stroke-linejoin="miter" stroke-linecap="square" stroke-miterlimit="3"/><path d=" M 119.364 166.864 L 118.364 129.045 L 139.364 127.864 L 140.864 165.864 L 119.364 166.864 Z " fill="rgb(236,61,61)" vector-effect="non-scaling-stroke" stroke-width="1.929" stroke="rgb(0,0,0)" stroke-linejoin="miter" stroke-linecap="square" stroke-miterlimit="3"/><path d=" M 97.242 133.045 L 107.803 132.38 L 107.803 143.69 L 97.864 143.69 L 97.242 133.045 Z " fill="rgb(0,165,184)" vector-effect="non-scaling-stroke" stroke-width="1.929" stroke="rgb(0,0,0)" stroke-linejoin="miter" stroke-linecap="square" stroke-miterlimit="3"/><path d=" M 85.671 111.763 L 86.453 90.164 L 95.832 89.334 L 95.832 102.625 L 85.671 111.763 Z " fill="rgb(236,71,71)" vector-effect="non-scaling-stroke" stroke-width="2.417" stroke="rgb(0,0,0)" stroke-linejoin="miter" stroke-linecap="square" stroke-miterlimit="3"/><path d=" M 180.348 162.645 Q 170.013 166.423 163.576 159.983 Q 155.609 152.014 138.792 149.339 Q 119.99 135.767 119.036 146.012 Q 118.541 151.325 127.892 156.657 Q 131.685 158.947 133.342 160.649 Q 142.614 170.171 100.642 164.64 L 91.786 155.326 Q 87.385 148.862 83.61 150.004 Q 77.977 151.709 84.292 161.979 Q 96.313 178.669 106.092 183.934 Q 122.244 192.631 156.505 184.599 L 181.591 185.93 L 180.348 162.645 Z " fill="rgb(255,183,77)" vector-effect="non-scaling-stroke" stroke-width="1.929" stroke="rgb(0,0,0)" stroke-linejoin="miter" stroke-linecap="square" stroke-miterlimit="3"/><path d=" M 179.727 159.158 L 180.348 188.591 L 198.364 188.591 L 197.647 158.653 L 179.727 159.158 Z " fill="rgb(121,134,203)" vector-effect="non-scaling-stroke" stroke-width="1.929" stroke="rgb(0,0,0)" stroke-linejoin="miter" stroke-linecap="square" stroke-miterlimit="3"/><path d=" M 0.918 46.537 L 19.98 46.537 L 20.615 87.388 L 0.918 87.388 L 0.918 46.537 Z " fill="rgb(121,134,203)" vector-effect="non-scaling-stroke" stroke-width="1.926" stroke="rgb(0,0,0)" stroke-linejoin="miter" stroke-linecap="square" stroke-miterlimit="3"/><path d=" M 35.865 57.56 L 96.229 3.091 L 127.364 39.404 L 64.458 95.818 L 35.865 57.56 Z " fill="rgb(56,142,60)" vector-effect="non-scaling-stroke" stroke-width="1.926" stroke="rgb(0,0,0)" stroke-linejoin="miter" stroke-linecap="square" stroke-miterlimit="3"/><path d=" M 119.739 45.888 L 126.728 54.677 L 84.791 77.662 L 119.739 45.888 Z " fill="rgb(5,79,5)" vector-effect="non-scaling-stroke" stroke-width="1.926" stroke="rgb(0,0,0)" stroke-linejoin="miter" stroke-linecap="square" stroke-miterlimit="3"/><path d=" M 50.858 78.091 L 54.986 96.191 L 62.745 93.795 L 50.858 78.091 Z " fill="rgb(27,94,32)" vector-effect="non-scaling-stroke" stroke-width="1.763" stroke="rgb(0,0,0)" stroke-linejoin="miter" stroke-linecap="square" stroke-miterlimit="3"/><path d=" M 41.584 57.56 L 90.51 12.169 Q 93.199 16.06 95.593 16.06 Q 97.988 16.06 100.677 12.169 L 119.103 34.865 Q 115.496 36.244 114.656 38.107 Q 113.638 40.363 115.926 44.591 L 69.542 85.443 Q 66.79 81.802 64.458 81.552 Q 62.802 81.375 60.011 82.849 L 41.584 57.56 Z " fill="rgb(162,206,163)" vector-effect="non-scaling-stroke" stroke-width="1.926" stroke="rgb(56,142,60)" stroke-linejoin="miter" stroke-linecap="square" stroke-miterlimit="3"/><path d=" M 19.98 50.427 L 48.573 29.029 Q 69.856 25.325 68.271 27.732 C 66.478 30.452 60.991 36.092 51.75 44.591 L 53.021 51.724 L 60.646 51.724 C 68.483 49.563 80.014 36.742 81.614 48.482 Q 82.18 52.629 77.167 58.857 L 52.386 79.607 L 20.615 79.607 L 19.98 50.427 Z " fill="rgb(255,183,77)" vector-effect="non-scaling-stroke" stroke-width="1.926" stroke="rgb(0,0,0)" stroke-linejoin="miter" stroke-linecap="square" stroke-miterlimit="3"/><path d=" M 86.062 34.865 C 82.39 35.65 80.017 39.755 81.614 43.294 C 82.844 46.02 85.779 47.258 88.604 46.537 C 91.957 45.68 94.172 42.152 93.052 38.755 C 92.071 35.781 89.042 34.227 86.062 34.865 Z " fill="rgb(8,115,8)" vector-effect="non-scaling-stroke" stroke-width="1.926" stroke="rgb(0,0,0)" stroke-linejoin="miter" stroke-linecap="square" stroke-miterlimit="3"/><path d=" M 73.241 48.001 L 74.043 50.777 L 76.985 52.543 Q 79.526 49.378 78.189 47.874 Q 76.905 46.43 73.241 48.001 Z " fill="rgb(255,224,178)" vector-effect="non-scaling-stroke" stroke-width="1.189" stroke="rgb(255,224,178)" stroke-linejoin="miter" stroke-linecap="square" stroke-miterlimit="3"/><path d=" M 124.972 150.782 L 127.341 149.534 L 128.394 146.485 Q 125.048 144.703 123.934 146.216 Q 122.863 147.669 124.972 150.782 Z " fill="rgb(255,224,178)" vector-effect="non-scaling-stroke" stroke-width="1.21" stroke="rgb(255,224,178)" stroke-linejoin="miter" stroke-linecap="square" stroke-miterlimit="3"/></g></svg>