<?xml version="1.0" standalone="no"?><!-- Generator: Gravit.io --><svg xmlns="http://www.w3.org/2000/svg" xmlns:xlink="http://www.w3.org/1999/xlink" style="isolation:isolate" viewBox="0 0 300 200" width="300" height="200"><defs><clipPath id="_clipPath_ws7RlkZXEGKJ2FE2wzaowh9jlJH9Nk0q"><rect width="300" height="200"/></clipPath></defs><g clip-path="url(#_clipPath_ws7RlkZXEGKJ2FE2wzaowh9jlJH9Nk0q)"><defs><filter id="VMRwInnnVNw0TEU1mUL8ME0pTHVfVnYE" x="-200%" y="-200%" width="400%" height="400%"><feOffset xmlns="http://www.w3.org/2000/svg" in="SourceAlpha" result="offOut" dx="0" dy="1"/><feGaussianBlur xmlns="http://www.w3.org/2000/svg" in="offOut" result="blurOut" stdDeviation="0"/><feComponentTransfer xmlns="http://www.w3.org/2000/svg" in="blurOut" result="opacOut"><feFuncA xmlns="http://www.w3.org/2000/svg" type="table" tableValues="0 0.5"/></feComponentTransfer><feBlend xmlns="http://www.w3.org/2000/svg" in="SourceGraphic" in2="opacOut" mode="normal"/></filter></defs><g filter="url(#VMRwInnnVNw0TEU1mUL8ME0pTHVfVnYE)"><path d=" M 91.806 36.642 Q 91.635 32.512 92.905 30.931 Q 94.106 29.434 97.483 29.16 L 107.397 29.16 Q 110.652 29.342 111.915 30.676 Q 113.383 32.228 113.487 36.636 L 114.074 149.389 Q 114.096 158.389 111.573 162.133 Q 108.183 167.16 97.505 167.538 L 29.277 167.87 L 16.062 145.704 L 73.135 145.124 Q 84.582 144.371 88.126 138.89 Q 90.324 135.49 90.94 127.538 L 91.806 36.642 Z " fill="rgb(255,153,0)" vector-effect="non-scaling-stroke" stroke-width="1" stroke="rgb(255,153,0)" stroke-linejoin="miter" stroke-linecap="square" stroke-miterlimit="3"/></g><defs><filter id="kdXO6rYHIEVtH4lHyXp6lOOu1gFfXIS3" x="-200%" y="-200%" width="400%" height="400%"><feOffset xmlns="http://www.w3.org/2000/svg" in="SourceAlpha" result="offOut" dx="0" dy="1"/><feGaussianBlur xmlns="http://www.w3.org/2000/svg" in="offOut" result="blurOut" stdDeviation="0"/><feComponentTransfer xmlns="http://www.w3.org/2000/svg" in="blurOut" result="opacOut"><feFuncA xmlns="http://www.w3.org/2000/svg" type="table" tableValues="0 0.5"/></feComponentTransfer><feBlend xmlns="http://www.w3.org/2000/svg" in="SourceGraphic" in2="opacOut" mode="normal"/></filter></defs><g filter="url(#kdXO6rYHIEVtH4lHyXp6lOOu1gFfXIS3)"><path d=" M 121.451 35.688 Q 121.598 32.24 122.68 30.927 Q 123.779 29.595 126.807 29.279 L 136.306 29.49 Q 142.616 28.91 144.573 31.879 Q 145.781 33.712 145.848 38.069 L 146.274 120.511 Q 146.499 129.992 149.087 134.025 Q 152.819 139.839 164.911 140.792 L 214.259 142.368 L 239.548 164.774 C 239.631 164.847 239.608 164.906 239.498 164.906 L 157.354 165.021 Q 133.509 163.574 126.579 151.863 Q 122.48 144.936 121.889 129.16 L 121.451 35.688 Z " fill="rgb(0,0,0)" vector-effect="non-scaling-stroke" stroke-width="1" stroke="rgb(0,0,0)" stroke-linejoin="miter" stroke-linecap="square" stroke-miterlimit="3"/></g><defs><filter id="hwDHWAkfZlzw9J5FmGrGSkoL4iW28qpF" x="-200%" y="-200%" width="400%" height="400%"><feOffset xmlns="http://www.w3.org/2000/svg" in="SourceAlpha" result="offOut" dx="0" dy="1"/><feGaussianBlur xmlns="http://www.w3.org/2000/svg" in="offOut" result="blurOut" stdDeviation="0"/><feComponentTransfer xmlns="http://www.w3.org/2000/svg" in="blurOut" result="opacOut"><feFuncA xmlns="http://www.w3.org/2000/svg" type="table" tableValues="0 0.5"/></feComponentTransfer><feBlend xmlns="http://www.w3.org/2000/svg" in="SourceGraphic" in2="opacOut" mode="normal"/></filter></defs><g filter="url(#hwDHWAkfZlzw9J5FmGrGSkoL4iW28qpF)"><path d=" M 286.669 29.701 L 170.184 29.701 Q 165.97 29.781 164.814 31.879 Q 164.086 33.201 164.267 36.158 L 164.346 47.113 Q 164.527 50.812 165.595 52.334 Q 166.846 54.117 170.59 54.833 L 218.39 54.951 L 217.736 138.291 L 241.699 156.636 L 242.163 55.229 L 286.907 55.484 Q 290.713 55.035 292.039 53.306 Q 293.181 51.818 293.44 48.065 L 293.309 38.883 Q 293.151 33.272 291.213 31.403 Q 289.894 30.131 286.669 29.701 Z " fill="rgb(255,153,0)" vector-effect="non-scaling-stroke" stroke-width="1" stroke="rgb(255,153,0)" stroke-linejoin="miter" stroke-linecap="square" stroke-miterlimit="3"/></g><path d=" M 117.08 182.681 L 123.96 182.681 L 123.96 183.881 L 114.76 183.881 L 114.76 172.681 L 117.08 172.681 L 117.08 182.681 L 117.08 182.681 Z  M 130.2 183.081 L 130.2 183.081 L 130.2 183.081 Q 130.984 183.081 131.664 182.809 L 131.664 182.809 L 131.664 182.809 Q 132.344 182.537 133 182.041 L 133 182.041 L 133.64 183.001 L 133.64 183.001 Q 133.336 183.273 132.928 183.497 L 132.928 183.497 L 132.928 183.497 Q 132.52 183.721 132.048 183.873 L 132.048 183.873 L 132.048 183.873 Q 131.576 184.025 131.064 184.113 L 131.064 184.113 L 131.064 184.113 Q 130.552 184.201 130.04 184.201 L 130.04 184.201 L 130.04 184.201 Q 128.904 184.201 127.968 183.905 L 127.968 183.905 L 127.968 183.905 Q 127.032 183.609 126.376 183.041 L 126.376 183.041 L 126.376 183.041 Q 125.72 182.473 125.36 181.641 L 125.36 181.641 L 125.36 181.641 Q 125 180.809 125 179.721 L 125 179.721 L 125 179.721 Q 125 178.649 125.344 177.809 L 125.344 177.809 L 125.344 177.809 Q 125.688 176.969 126.304 176.401 L 126.304 176.401 L 126.304 176.401 Q 126.92 175.833 127.768 175.537 L 127.768 175.537 L 127.768 175.537 Q 128.616 175.241 129.64 175.241 L 129.64 175.241 L 129.64 175.241 Q 130.6 175.241 131.448 175.529 L 131.448 175.529 L 131.448 175.529 Q 132.296 175.817 132.92 176.369 L 132.92 176.369 L 132.92 176.369 Q 133.544 176.921 133.912 177.705 L 133.912 177.705 L 133.912 177.705 Q 134.28 178.489 134.28 179.481 L 134.28 179.481 L 134.28 180.601 L 127.448 180.601 L 127.448 180.601 Q 127.64 181.929 128.368 182.505 L 128.368 182.505 L 128.368 182.505 Q 129.096 183.081 130.2 183.081 Z  M 129.64 176.281 L 129.64 176.281 L 129.64 176.281 Q 129.176 176.281 128.776 176.457 L 128.776 176.457 L 128.776 176.457 Q 128.376 176.633 128.08 177.017 L 128.08 177.017 L 128.08 177.017 Q 127.784 177.401 127.6 178.009 L 127.6 178.009 L 127.6 178.009 Q 127.416 178.617 127.4 179.481 L 127.4 179.481 L 131.88 179.481 L 131.88 179.481 Q 131.88 178.649 131.688 178.041 L 131.688 178.041 L 131.688 178.041 Q 131.496 177.433 131.184 177.041 L 131.184 177.041 L 131.184 177.041 Q 130.872 176.649 130.464 176.465 L 130.464 176.465 L 130.464 176.465 Q 130.056 176.281 129.64 176.281 Z  M 140.6 182.761 L 142.6 182.761 L 142.6 176.681 L 140.6 176.681 L 140.6 176.681 Q 140.056 176.681 139.6 176.849 L 139.6 176.849 L 139.6 176.849 Q 139.144 177.017 138.816 177.385 L 138.816 177.385 L 138.816 177.385 Q 138.488 177.753 138.304 178.329 L 138.304 178.329 L 138.304 178.329 Q 138.12 178.905 138.12 179.721 L 138.12 179.721 L 138.12 179.721 Q 138.12 180.537 138.304 181.113 L 138.304 181.113 L 138.304 181.113 Q 138.488 181.689 138.816 182.057 L 138.816 182.057 L 138.816 182.057 Q 139.144 182.425 139.6 182.593 L 139.6 182.593 L 139.6 182.593 Q 140.056 182.761 140.6 182.761 L 140.6 182.761 L 140.6 182.761 Z  M 144.84 183.881 L 140.6 183.881 L 140.6 183.881 Q 139.496 183.881 138.592 183.593 L 138.592 183.593 L 138.592 183.593 Q 137.688 183.305 137.048 182.761 L 137.048 182.761 L 137.048 182.761 Q 136.408 182.217 136.064 181.449 L 136.064 181.449 L 136.064 181.449 Q 135.72 180.681 135.72 179.721 L 135.72 179.721 L 135.72 179.721 Q 135.72 178.761 136.064 177.993 L 136.064 177.993 L 136.064 177.993 Q 136.408 177.225 137.048 176.681 L 137.048 176.681 L 137.048 176.681 Q 137.688 176.137 138.592 175.849 L 138.592 175.849 L 138.592 175.849 Q 139.496 175.561 140.6 175.561 L 140.6 175.561 L 142.6 175.561 L 142.6 172.681 L 144.84 172.681 L 144.84 183.881 L 144.84 183.881 Z  M 153.56 176.681 L 151.56 176.681 L 151.56 176.681 Q 150.408 176.681 149.744 177.393 L 149.744 177.393 L 149.744 177.393 Q 149.08 178.105 149.08 179.561 L 149.08 179.561 L 149.08 179.561 Q 149.08 181.017 149.744 181.729 L 149.744 181.729 L 149.744 181.729 Q 150.408 182.441 151.56 182.441 L 151.56 182.441 L 153.56 182.441 L 153.56 176.681 L 153.56 176.681 Z  M 155.8 175.561 L 155.8 183.721 L 155.8 183.721 Q 155.8 184.473 155.512 185.089 L 155.512 185.089 L 155.512 185.089 Q 155.224 185.705 154.656 186.153 L 154.656 186.153 L 154.656 186.153 Q 154.088 186.601 153.232 186.841 L 153.232 186.841 L 153.232 186.841 Q 152.376 187.081 151.24 187.081 L 151.24 187.081 L 151.24 187.081 Q 150.856 187.081 150.416 187.025 L 150.416 187.025 L 150.416 187.025 Q 149.976 186.969 149.528 186.849 L 149.528 186.849 L 149.528 186.849 Q 149.08 186.729 148.656 186.545 L 148.656 186.545 L 148.656 186.545 Q 148.232 186.361 147.88 186.121 L 147.88 186.121 L 148.44 185.161 L 148.44 185.161 Q 148.984 185.529 149.672 185.745 L 149.672 185.745 L 149.672 185.745 Q 150.36 185.961 151.08 185.961 L 151.08 185.961 L 151.08 185.961 Q 152.28 185.961 152.92 185.417 L 152.92 185.417 L 152.92 185.417 Q 153.56 184.873 153.56 183.721 L 153.56 183.721 L 153.56 183.561 L 151.56 183.561 L 151.56 183.561 Q 150.456 183.561 149.552 183.273 L 149.552 183.273 L 149.552 183.273 Q 148.648 182.985 148.008 182.457 L 148.008 182.457 L 148.008 182.457 Q 147.368 181.929 147.024 181.193 L 147.024 181.193 L 147.024 181.193 Q 146.68 180.457 146.68 179.561 L 146.68 179.561 L 146.68 179.561 Q 146.68 178.665 147.024 177.929 L 147.024 177.929 L 147.024 177.929 Q 147.368 177.193 148.008 176.665 L 148.008 176.665 L 148.008 176.665 Q 148.648 176.137 149.552 175.849 L 149.552 175.849 L 149.552 175.849 Q 150.456 175.561 151.56 175.561 L 151.56 175.561 L 155.8 175.561 L 155.8 175.561 Z  M 162.84 183.081 L 162.84 183.081 L 162.84 183.081 Q 163.624 183.081 164.304 182.809 L 164.304 182.809 L 164.304 182.809 Q 164.984 182.537 165.64 182.041 L 165.64 182.041 L 166.28 183.001 L 166.28 183.001 Q 165.976 183.273 165.568 183.497 L 165.568 183.497 L 165.568 183.497 Q 165.16 183.721 164.688 183.873 L 164.688 183.873 L 164.688 183.873 Q 164.216 184.025 163.704 184.113 L 163.704 184.113 L 163.704 184.113 Q 163.192 184.201 162.68 184.201 L 162.68 184.201 L 162.68 184.201 Q 161.544 184.201 160.608 183.905 L 160.608 183.905 L 160.608 183.905 Q 159.672 183.609 159.016 183.041 L 159.016 183.041 L 159.016 183.041 Q 158.36 182.473 158 181.641 L 158 181.641 L 158 181.641 Q 157.64 180.809 157.64 179.721 L 157.64 179.721 L 157.64 179.721 Q 157.64 178.649 157.984 177.809 L 157.984 177.809 L 157.984 177.809 Q 158.328 176.969 158.944 176.401 L 158.944 176.401 L 158.944 176.401 Q 159.56 175.833 160.408 175.537 L 160.408 175.537 L 160.408 175.537 Q 161.256 175.241 162.28 175.241 L 162.28 175.241 L 162.28 175.241 Q 163.24 175.241 164.088 175.529 L 164.088 175.529 L 164.088 175.529 Q 164.936 175.817 165.56 176.369 L 165.56 176.369 L 165.56 176.369 Q 166.184 176.921 166.552 177.705 L 166.552 177.705 L 166.552 177.705 Q 166.92 178.489 166.92 179.481 L 166.92 179.481 L 166.92 180.601 L 160.088 180.601 L 160.088 180.601 Q 160.28 181.929 161.008 182.505 L 161.008 182.505 L 161.008 182.505 Q 161.736 183.081 162.84 183.081 Z  M 162.28 176.281 L 162.28 176.281 L 162.28 176.281 Q 161.816 176.281 161.416 176.457 L 161.416 176.457 L 161.416 176.457 Q 161.016 176.633 160.72 177.017 L 160.72 177.017 L 160.72 177.017 Q 160.424 177.401 160.24 178.009 L 160.24 178.009 L 160.24 178.009 Q 160.056 178.617 160.04 179.481 L 160.04 179.481 L 164.52 179.481 L 164.52 179.481 Q 164.52 178.649 164.328 178.041 L 164.328 178.041 L 164.328 178.041 Q 164.136 177.433 163.824 177.041 L 163.824 177.041 L 163.824 177.041 Q 163.512 176.649 163.104 176.465 L 163.104 176.465 L 163.104 176.465 Q 162.696 176.281 162.28 176.281 Z  M 175.08 175.561 L 175.08 176.681 L 173.16 176.681 L 173.16 176.681 Q 172.072 176.681 171.496 177.265 L 171.496 177.265 L 171.496 177.265 Q 170.92 177.849 170.92 179.001 L 170.92 179.001 L 170.92 183.881 L 168.68 183.881 L 168.68 179.001 L 168.68 179.001 Q 168.68 177.369 169.712 176.465 L 169.712 176.465 L 169.712 176.465 Q 170.744 175.561 172.68 175.561 L 172.68 175.561 L 175.08 175.561 L 175.08 175.561 Z " fill-rule="evenodd" fill="rgb(0,0,0)"/><path d=" M 195.446 173.093 L 195.446 174.293 L 191.126 174.293 L 191.126 184.293 L 188.806 184.293 L 188.806 174.293 L 184.486 174.293 L 184.486 173.093 L 195.446 173.093 L 195.446 173.093 Z  M 203.046 175.973 L 203.046 177.093 L 201.126 177.093 L 201.126 177.093 Q 200.038 177.093 199.462 177.677 L 199.462 177.677 L 199.462 177.677 Q 198.886 178.261 198.886 179.413 L 198.886 179.413 L 198.886 184.293 L 196.646 184.293 L 196.646 179.413 L 196.646 179.413 Q 196.646 177.781 197.678 176.877 L 197.678 176.877 L 197.678 176.877 Q 198.71 175.973 200.646 175.973 L 200.646 175.973 L 203.046 175.973 L 203.046 175.973 Z  M 206.646 176.133 L 206.646 184.293 L 204.406 184.293 L 204.406 176.133 L 206.646 176.133 L 206.646 176.133 Z  M 206.726 173.973 L 206.726 173.973 L 206.726 173.973 Q 206.726 174.453 206.398 174.813 L 206.398 174.813 L 206.398 174.813 Q 206.07 175.173 205.526 175.173 L 205.526 175.173 L 205.526 175.173 Q 204.982 175.173 204.654 174.813 L 204.654 174.813 L 204.654 174.813 Q 204.326 174.453 204.326 173.973 L 204.326 173.973 L 204.326 173.973 Q 204.326 173.493 204.654 173.133 L 204.654 173.133 L 204.654 173.133 Q 204.982 172.773 205.526 172.773 L 205.526 172.773 L 205.526 172.773 Q 206.054 172.773 206.39 173.133 L 206.39 173.133 L 206.39 173.133 Q 206.726 173.493 206.726 173.973 Z  M 210.806 181.653 L 210.806 181.653 L 210.806 181.653 Q 210.806 183.173 212.646 183.173 L 212.646 183.173 L 214.886 183.173 L 214.886 180.133 L 212.646 180.133 L 212.646 180.133 Q 210.806 180.133 210.806 181.653 Z  M 212.646 179.013 L 214.886 179.013 L 214.886 179.013 Q 214.886 177.861 214.286 177.317 L 214.286 177.317 L 214.286 177.317 Q 213.686 176.773 212.726 176.773 L 212.726 176.773 L 212.726 176.773 Q 212.006 176.773 211.318 176.989 L 211.318 176.989 L 211.318 176.989 Q 210.63 177.205 210.086 177.573 L 210.086 177.573 L 209.526 176.613 L 209.526 176.613 Q 209.878 176.373 210.302 176.197 L 210.302 176.197 L 210.302 176.197 Q 210.726 176.021 211.174 175.901 L 211.174 175.901 L 211.174 175.901 Q 211.622 175.781 212.062 175.717 L 212.062 175.717 L 212.062 175.717 Q 212.502 175.653 212.886 175.653 L 212.886 175.653 L 212.886 175.653 Q 213.91 175.653 214.694 175.893 L 214.694 175.893 L 214.694 175.893 Q 215.478 176.133 216.022 176.581 L 216.022 176.581 L 216.022 176.581 Q 216.566 177.029 216.846 177.645 L 216.846 177.645 L 216.846 177.645 Q 217.126 178.261 217.126 179.013 L 217.126 179.013 L 217.126 184.293 L 212.646 184.293 L 212.646 184.293 Q 210.47 184.293 209.438 183.637 L 209.438 183.637 L 209.438 183.637 Q 208.406 182.981 208.406 181.653 L 208.406 181.653 L 208.406 181.653 Q 208.406 180.325 209.438 179.669 L 209.438 179.669 L 209.438 179.669 Q 210.47 179.013 212.646 179.013 L 212.646 179.013 L 212.646 179.013 Z  M 221.526 173.093 L 221.526 184.293 L 219.286 184.293 L 219.286 173.093 L 221.526 173.093 L 221.526 173.093 Z  M 223.766 184.293 L 223.766 173.093 L 229.206 173.093 L 229.206 173.093 Q 230.438 173.093 231.342 173.309 L 231.342 173.309 L 231.342 173.309 Q 232.246 173.525 232.838 173.917 L 232.838 173.917 L 232.838 173.917 Q 233.43 174.309 233.718 174.853 L 233.718 174.853 L 233.718 174.853 Q 234.006 175.397 234.006 176.053 L 234.006 176.053 L 234.006 176.053 Q 234.006 176.901 233.526 177.525 L 233.526 177.525 L 233.526 177.525 Q 233.046 178.149 232.086 178.453 L 232.086 178.453 L 232.086 178.453 Q 233.286 178.693 233.966 179.389 L 233.966 179.389 L 233.966 179.389 Q 234.646 180.085 234.646 181.173 L 234.646 181.173 L 234.646 181.173 Q 234.646 182.613 233.454 183.453 L 233.454 183.453 L 233.454 183.453 Q 232.262 184.293 229.686 184.293 L 229.686 184.293 L 223.766 184.293 L 223.766 184.293 Z  M 229.686 179.173 L 226.086 179.173 L 226.086 183.093 L 229.686 183.093 L 229.686 183.093 Q 230.886 183.093 231.526 182.613 L 231.526 182.613 L 231.526 182.613 Q 232.166 182.133 232.166 181.173 L 232.166 181.173 L 232.166 181.173 Q 232.166 180.149 231.526 179.661 L 231.526 179.661 L 231.526 179.661 Q 230.886 179.173 229.686 179.173 L 229.686 179.173 L 229.686 179.173 Z  M 226.086 177.973 L 229.206 177.973 L 229.206 177.973 Q 231.526 177.973 231.526 176.053 L 231.526 176.053 L 231.526 176.053 Q 231.526 175.205 230.942 174.749 L 230.942 174.749 L 230.942 174.749 Q 230.358 174.293 229.206 174.293 L 229.206 174.293 L 226.086 174.293 L 226.086 177.973 L 226.086 177.973 Z  M 238.406 181.653 L 238.406 181.653 L 238.406 181.653 Q 238.406 183.173 240.246 183.173 L 240.246 183.173 L 242.486 183.173 L 242.486 180.133 L 240.246 180.133 L 240.246 180.133 Q 238.406 180.133 238.406 181.653 Z  M 240.246 179.013 L 242.486 179.013 L 242.486 179.013 Q 242.486 177.861 241.886 177.317 L 241.886 177.317 L 241.886 177.317 Q 241.286 176.773 240.326 176.773 L 240.326 176.773 L 240.326 176.773 Q 239.606 176.773 238.918 176.989 L 238.918 176.989 L 238.918 176.989 Q 238.23 177.205 237.686 177.573 L 237.686 177.573 L 237.126 176.613 L 237.126 176.613 Q 237.478 176.373 237.902 176.197 L 237.902 176.197 L 237.902 176.197 Q 238.326 176.021 238.774 175.901 L 238.774 175.901 L 238.774 175.901 Q 239.222 175.781 239.662 175.717 L 239.662 175.717 L 239.662 175.717 Q 240.102 175.653 240.486 175.653 L 240.486 175.653 L 240.486 175.653 Q 241.51 175.653 242.294 175.893 L 242.294 175.893 L 242.294 175.893 Q 243.078 176.133 243.622 176.581 L 243.622 176.581 L 243.622 176.581 Q 244.166 177.029 244.446 177.645 L 244.446 177.645 L 244.446 177.645 Q 244.726 178.261 244.726 179.013 L 244.726 179.013 L 244.726 184.293 L 240.246 184.293 L 240.246 184.293 Q 238.07 184.293 237.038 183.637 L 237.038 183.637 L 237.038 183.637 Q 236.006 182.981 236.006 181.653 L 236.006 181.653 L 236.006 181.653 Q 236.006 180.325 237.038 179.669 L 237.038 179.669 L 237.038 179.669 Q 238.07 179.013 240.246 179.013 L 240.246 179.013 L 240.246 179.013 Z  M 249.126 173.093 L 249.126 184.293 L 246.886 184.293 L 246.886 173.093 L 249.126 173.093 L 249.126 173.093 Z  M 253.206 181.653 L 253.206 181.653 L 253.206 181.653 Q 253.206 183.173 255.046 183.173 L 255.046 183.173 L 257.286 183.173 L 257.286 180.133 L 255.046 180.133 L 255.046 180.133 Q 253.206 180.133 253.206 181.653 Z  M 255.046 179.013 L 257.286 179.013 L 257.286 179.013 Q 257.286 177.861 256.686 177.317 L 256.686 177.317 L 256.686 177.317 Q 256.086 176.773 255.126 176.773 L 255.126 176.773 L 255.126 176.773 Q 254.406 176.773 253.718 176.989 L 253.718 176.989 L 253.718 176.989 Q 253.03 177.205 252.486 177.573 L 252.486 177.573 L 251.926 176.613 L 251.926 176.613 Q 252.278 176.373 252.702 176.197 L 252.702 176.197 L 252.702 176.197 Q 253.126 176.021 253.574 175.901 L 253.574 175.901 L 253.574 175.901 Q 254.022 175.781 254.462 175.717 L 254.462 175.717 L 254.462 175.717 Q 254.902 175.653 255.286 175.653 L 255.286 175.653 L 255.286 175.653 Q 256.31 175.653 257.094 175.893 L 257.094 175.893 L 257.094 175.893 Q 257.878 176.133 258.422 176.581 L 258.422 176.581 L 258.422 176.581 Q 258.966 177.029 259.246 177.645 L 259.246 177.645 L 259.246 177.645 Q 259.526 178.261 259.526 179.013 L 259.526 179.013 L 259.526 184.293 L 255.046 184.293 L 255.046 184.293 Q 252.87 184.293 251.838 183.637 L 251.838 183.637 L 251.838 183.637 Q 250.806 182.981 250.806 181.653 L 250.806 181.653 L 250.806 181.653 Q 250.806 180.325 251.838 179.669 L 251.838 179.669 L 251.838 179.669 Q 252.87 179.013 255.046 179.013 L 255.046 179.013 L 255.046 179.013 Z  M 270.486 179.253 L 270.486 184.293 L 268.246 184.293 L 268.246 179.253 L 268.246 179.253 Q 268.246 178.101 267.67 177.597 L 267.67 177.597 L 267.67 177.597 Q 267.094 177.093 266.006 177.093 L 266.006 177.093 L 263.926 177.093 L 263.926 184.293 L 261.686 184.293 L 261.686 175.973 L 266.006 175.973 L 266.006 175.973 Q 268.294 175.973 269.39 176.797 L 269.39 176.797 L 269.39 176.797 Q 270.486 177.621 270.486 179.253 L 270.486 179.253 L 270.486 179.253 Z  M 277.126 175.653 L 277.126 175.653 L 277.126 175.653 Q 277.638 175.653 278.15 175.741 L 278.15 175.741 L 278.15 175.741 Q 278.662 175.829 279.134 175.981 L 279.134 175.981 L 279.134 175.981 Q 279.606 176.133 280.014 176.357 L 280.014 176.357 L 280.014 176.357 Q 280.422 176.581 280.726 176.853 L 280.726 176.853 L 280.086 177.813 L 280.086 177.813 Q 279.43 177.317 278.75 177.045 L 278.75 177.045 L 278.75 177.045 Q 278.07 176.773 277.286 176.773 L 277.286 176.773 L 277.286 176.773 Q 276.71 176.773 276.23 176.957 L 276.23 176.957 L 276.23 176.957 Q 275.75 177.141 275.398 177.549 L 275.398 177.549 L 275.398 177.549 Q 275.046 177.957 274.846 178.597 L 274.846 178.597 L 274.846 178.597 Q 274.646 179.237 274.646 180.133 L 274.646 180.133 L 274.646 180.133 Q 274.646 181.029 274.846 181.669 L 274.846 181.669 L 274.846 181.669 Q 275.046 182.309 275.414 182.717 L 275.414 182.717 L 275.414 182.717 Q 275.782 183.125 276.302 183.309 L 276.302 183.309 L 276.302 183.309 Q 276.822 183.493 277.446 183.493 L 277.446 183.493 L 277.446 183.493 Q 278.23 183.493 278.91 183.221 L 278.91 183.221 L 278.91 183.221 Q 279.59 182.949 280.246 182.453 L 280.246 182.453 L 280.886 183.413 L 280.886 183.413 Q 280.582 183.685 280.174 183.909 L 280.174 183.909 L 280.174 183.909 Q 279.766 184.133 279.294 184.285 L 279.294 184.285 L 279.294 184.285 Q 278.822 184.437 278.31 184.525 L 278.31 184.525 L 278.31 184.525 Q 277.798 184.613 277.286 184.613 L 277.286 184.613 L 277.286 184.613 Q 276.15 184.613 275.214 184.317 L 275.214 184.317 L 275.214 184.317 Q 274.278 184.021 273.622 183.453 L 273.622 183.453 L 273.622 183.453 Q 272.966 182.885 272.606 182.053 L 272.606 182.053 L 272.606 182.053 Q 272.246 181.221 272.246 180.133 L 272.246 180.133 L 272.246 180.133 Q 272.246 179.061 272.606 178.221 L 272.606 178.221 L 272.606 178.221 Q 272.966 177.381 273.606 176.813 L 273.606 176.813 L 273.606 176.813 Q 274.246 176.245 275.142 175.949 L 275.142 175.949 L 275.142 175.949 Q 276.038 175.653 277.126 175.653 Z  M 287.286 183.493 L 287.286 183.493 L 287.286 183.493 Q 288.07 183.493 288.75 183.221 L 288.75 183.221 L 288.75 183.221 Q 289.43 182.949 290.086 182.453 L 290.086 182.453 L 290.726 183.413 L 290.726 183.413 Q 290.422 183.685 290.014 183.909 L 290.014 183.909 L 290.014 183.909 Q 289.606 184.133 289.134 184.285 L 289.134 184.285 L 289.134 184.285 Q 288.662 184.437 288.15 184.525 L 288.15 184.525 L 288.15 184.525 Q 287.638 184.613 287.126 184.613 L 287.126 184.613 L 287.126 184.613 Q 285.99 184.613 285.054 184.317 L 285.054 184.317 L 285.054 184.317 Q 284.118 184.021 283.462 183.453 L 283.462 183.453 L 283.462 183.453 Q 282.806 182.885 282.446 182.053 L 282.446 182.053 L 282.446 182.053 Q 282.086 181.221 282.086 180.133 L 282.086 180.133 L 282.086 180.133 Q 282.086 179.061 282.43 178.221 L 282.43 178.221 L 282.43 178.221 Q 282.774 177.381 283.39 176.813 L 283.39 176.813 L 283.39 176.813 Q 284.006 176.245 284.854 175.949 L 284.854 175.949 L 284.854 175.949 Q 285.702 175.653 286.726 175.653 L 286.726 175.653 L 286.726 175.653 Q 287.686 175.653 288.534 175.941 L 288.534 175.941 L 288.534 175.941 Q 289.382 176.229 290.006 176.781 L 290.006 176.781 L 290.006 176.781 Q 290.63 177.333 290.998 178.117 L 290.998 178.117 L 290.998 178.117 Q 291.366 178.901 291.366 179.893 L 291.366 179.893 L 291.366 181.013 L 284.534 181.013 L 284.534 181.013 Q 284.726 182.341 285.454 182.917 L 285.454 182.917 L 285.454 182.917 Q 286.182 183.493 287.286 183.493 Z  M 286.726 176.693 L 286.726 176.693 L 286.726 176.693 Q 286.262 176.693 285.862 176.869 L 285.862 176.869 L 285.862 176.869 Q 285.462 177.045 285.166 177.429 L 285.166 177.429 L 285.166 177.429 Q 284.87 177.813 284.686 178.421 L 284.686 178.421 L 284.686 178.421 Q 284.502 179.029 284.486 179.893 L 284.486 179.893 L 288.966 179.893 L 288.966 179.893 Q 288.966 179.061 288.774 178.453 L 288.774 178.453 L 288.774 178.453 Q 288.582 177.845 288.27 177.453 L 288.27 177.453 L 288.27 177.453 Q 287.958 177.061 287.55 176.877 L 287.55 176.877 L 287.55 176.877 Q 287.142 176.693 286.726 176.693 Z " fill-rule="evenodd" fill="rgb(255,153,0)"/><path d=" M 16.856 54.114 Q 18.976 44.305 20.814 39.22 Q 23.402 32.059 30.558 20.066 L 46.441 104.555 Q 41.782 111.373 39.653 115.333 Q 36.097 121.949 31.708 135.253 L 16.856 54.114 Z " fill="rgb(0,0,0)" vector-effect="non-scaling-stroke" stroke-width="1" stroke="rgb(0,0,0)" stroke-linejoin="miter" stroke-linecap="square" stroke-miterlimit="3"/><path d=" M 37.898 32.028 Q 38.849 27.333 40.222 25.21 Q 41.511 23.216 44.999 20.671 L 62.26 106.118 L 33.772 133.804 Q 37.808 124.813 40.715 120.403 Q 44.154 115.188 52.164 107.052 L 37.898 32.028 Z " fill="rgb(0,0,0)" vector-effect="non-scaling-stroke" stroke-width="1" stroke="rgb(0,0,0)" stroke-linejoin="miter" stroke-linecap="square" stroke-miterlimit="3"/><path d=" M 53.489 36.027 Q 54.785 32.052 56.085 30.261 Q 57.218 28.701 59.994 26.547 L 74.769 108.997 L 35.911 135.028 Q 46.989 125.098 53.024 119.761 Q 58.022 115.341 67.292 107.236 L 53.489 36.027 Z " fill="rgb(0,0,0)" vector-effect="non-scaling-stroke" stroke-width="1" stroke="rgb(0,0,0)" stroke-linejoin="miter" stroke-linecap="square" stroke-miterlimit="3"/><path d=" M 35.326 184.559 L 35.326 184.559 L 35.326 184.559 Q 34.75 184.559 34.182 184.463 L 34.182 184.463 L 34.182 184.463 Q 33.614 184.367 33.086 184.191 L 33.086 184.191 L 33.086 184.191 Q 32.558 184.015 32.11 183.783 L 32.11 183.783 L 32.11 183.783 Q 31.662 183.551 31.326 183.279 L 31.326 183.279 L 32.046 182.319 L 32.046 182.319 Q 32.766 182.863 33.51 183.111 L 33.51 183.111 L 33.51 183.111 Q 34.254 183.359 35.166 183.359 L 35.166 183.359 L 35.166 183.359 Q 35.822 183.359 36.39 183.159 L 36.39 183.159 L 36.39 183.159 Q 36.958 182.959 37.382 182.511 L 37.382 182.511 L 37.382 182.511 Q 37.806 182.063 38.046 181.367 L 38.046 181.367 L 38.046 181.367 Q 38.286 180.671 38.286 179.679 L 38.286 179.679 L 38.286 174.239 L 34.526 174.239 L 34.526 173.039 L 40.606 173.039 L 40.606 179.679 L 40.606 179.679 Q 40.606 180.911 40.23 181.823 L 40.23 181.823 L 40.23 181.823 Q 39.854 182.735 39.166 183.343 L 39.166 183.343 L 39.166 183.343 Q 38.478 183.951 37.502 184.255 L 37.502 184.255 L 37.502 184.255 Q 36.526 184.559 35.326 184.559 Z  M 47.326 183.519 L 47.326 183.519 L 47.326 183.519 Q 47.838 183.519 48.286 183.327 L 48.286 183.327 L 48.286 183.327 Q 48.734 183.135 49.07 182.727 L 49.07 182.727 L 49.07 182.727 Q 49.406 182.319 49.606 181.663 L 49.606 181.663 L 49.606 181.663 Q 49.806 181.007 49.806 180.079 L 49.806 180.079 L 49.806 180.079 Q 49.806 179.151 49.606 178.495 L 49.606 178.495 L 49.606 178.495 Q 49.406 177.839 49.07 177.431 L 49.07 177.431 L 49.07 177.431 Q 48.734 177.023 48.286 176.831 L 48.286 176.831 L 48.286 176.831 Q 47.838 176.639 47.326 176.639 L 47.326 176.639 L 47.326 176.639 Q 46.814 176.639 46.366 176.831 L 46.366 176.831 L 46.366 176.831 Q 45.918 177.023 45.582 177.431 L 45.582 177.431 L 45.582 177.431 Q 45.246 177.839 45.046 178.495 L 45.046 178.495 L 45.046 178.495 Q 44.846 179.151 44.846 180.079 L 44.846 180.079 L 44.846 180.079 Q 44.846 181.007 45.046 181.663 L 45.046 181.663 L 45.046 181.663 Q 45.246 182.319 45.582 182.727 L 45.582 182.727 L 45.582 182.727 Q 45.918 183.135 46.366 183.327 L 46.366 183.327 L 46.366 183.327 Q 46.814 183.519 47.326 183.519 Z  M 47.326 175.599 L 47.326 175.599 L 47.326 175.599 Q 48.398 175.599 49.302 175.895 L 49.302 175.895 L 49.302 175.895 Q 50.206 176.191 50.846 176.759 L 50.846 176.759 L 50.846 176.759 Q 51.486 177.327 51.846 178.167 L 51.846 178.167 L 51.846 178.167 Q 52.206 179.007 52.206 180.079 L 52.206 180.079 L 52.206 180.079 Q 52.206 181.167 51.846 181.999 L 51.846 181.999 L 51.846 181.999 Q 51.486 182.831 50.846 183.399 L 50.846 183.399 L 50.846 183.399 Q 50.206 183.967 49.302 184.263 L 49.302 184.263 L 49.302 184.263 Q 48.398 184.559 47.326 184.559 L 47.326 184.559 L 47.326 184.559 Q 46.238 184.559 45.342 184.263 L 45.342 184.263 L 45.342 184.263 Q 44.446 183.967 43.806 183.399 L 43.806 183.399 L 43.806 183.399 Q 43.166 182.831 42.806 181.999 L 42.806 181.999 L 42.806 181.999 Q 42.446 181.167 42.446 180.079 L 42.446 180.079 L 42.446 180.079 Q 42.446 179.007 42.806 178.167 L 42.806 178.167 L 42.806 178.167 Q 43.166 177.327 43.806 176.759 L 43.806 176.759 L 43.806 176.759 Q 44.446 176.191 45.342 175.895 L 45.342 175.895 L 45.342 175.895 Q 46.238 175.599 47.326 175.599 Z  M 54.046 180.959 L 54.046 175.919 L 56.286 175.919 L 56.286 180.959 L 56.286 180.959 Q 56.286 182.111 56.862 182.615 L 56.862 182.615 L 56.862 182.615 Q 57.438 183.119 58.526 183.119 L 58.526 183.119 L 60.606 183.119 L 60.606 175.919 L 62.846 175.919 L 62.846 184.239 L 58.526 184.239 L 58.526 184.239 Q 56.238 184.239 55.142 183.415 L 55.142 183.415 L 55.142 183.415 Q 54.046 182.591 54.046 180.959 L 54.046 180.959 L 54.046 180.959 Z  M 71.406 175.919 L 71.406 177.039 L 69.486 177.039 L 69.486 177.039 Q 68.398 177.039 67.822 177.623 L 67.822 177.623 L 67.822 177.623 Q 67.246 178.207 67.246 179.359 L 67.246 179.359 L 67.246 184.239 L 65.006 184.239 L 65.006 179.359 L 65.006 179.359 Q 65.006 177.727 66.038 176.823 L 66.038 176.823 L 66.038 176.823 Q 67.07 175.919 69.006 175.919 L 69.006 175.919 L 71.406 175.919 L 71.406 175.919 Z  M 81.486 179.199 L 81.486 184.239 L 79.246 184.239 L 79.246 179.199 L 79.246 179.199 Q 79.246 178.047 78.67 177.543 L 78.67 177.543 L 78.67 177.543 Q 78.094 177.039 77.006 177.039 L 77.006 177.039 L 74.926 177.039 L 74.926 184.239 L 72.686 184.239 L 72.686 175.919 L 77.006 175.919 L 77.006 175.919 Q 79.294 175.919 80.39 176.743 L 80.39 176.743 L 80.39 176.743 Q 81.486 177.567 81.486 179.199 L 81.486 179.199 L 81.486 179.199 Z  M 85.486 181.599 L 85.486 181.599 L 85.486 181.599 Q 85.486 183.119 87.326 183.119 L 87.326 183.119 L 89.566 183.119 L 89.566 180.079 L 87.326 180.079 L 87.326 180.079 Q 85.486 180.079 85.486 181.599 Z  M 87.326 178.959 L 89.566 178.959 L 89.566 178.959 Q 89.566 177.807 88.966 177.263 L 88.966 177.263 L 88.966 177.263 Q 88.366 176.719 87.406 176.719 L 87.406 176.719 L 87.406 176.719 Q 86.686 176.719 85.998 176.935 L 85.998 176.935 L 85.998 176.935 Q 85.31 177.151 84.766 177.519 L 84.766 177.519 L 84.206 176.559 L 84.206 176.559 Q 84.558 176.319 84.982 176.143 L 84.982 176.143 L 84.982 176.143 Q 85.406 175.967 85.854 175.847 L 85.854 175.847 L 85.854 175.847 Q 86.302 175.727 86.742 175.663 L 86.742 175.663 L 86.742 175.663 Q 87.182 175.599 87.566 175.599 L 87.566 175.599 L 87.566 175.599 Q 88.59 175.599 89.374 175.839 L 89.374 175.839 L 89.374 175.839 Q 90.158 176.079 90.702 176.527 L 90.702 176.527 L 90.702 176.527 Q 91.246 176.975 91.526 177.591 L 91.526 177.591 L 91.526 177.591 Q 91.806 178.207 91.806 178.959 L 91.806 178.959 L 91.806 184.239 L 87.326 184.239 L 87.326 184.239 Q 85.15 184.239 84.118 183.583 L 84.118 183.583 L 84.118 183.583 Q 83.086 182.927 83.086 181.599 L 83.086 181.599 L 83.086 181.599 Q 83.086 180.271 84.118 179.615 L 84.118 179.615 L 84.118 179.615 Q 85.15 178.959 87.326 178.959 L 87.326 178.959 L 87.326 178.959 Z  M 96.206 173.039 L 96.206 184.239 L 93.966 184.239 L 93.966 173.039 L 96.206 173.039 L 96.206 173.039 Z " fill-rule="evenodd" fill="rgb(255,153,0)"/></g></svg>