<?xml version="1.0" standalone="no"?><!-- Generator: Gravit.io --><svg xmlns="http://www.w3.org/2000/svg" xmlns:xlink="http://www.w3.org/1999/xlink" style="isolation:isolate" viewBox="0 0 160 150" width="160" height="150"><defs><clipPath id="_clipPath_Vi6f2Zsf25r1m5XDtwzZslktCPT2n8hg"><rect width="160" height="150"/></clipPath></defs><g clip-path="url(#_clipPath_Vi6f2Zsf25r1m5XDtwzZslktCPT2n8hg)"><linearGradient id="_lgradient_9" x1="0%" y1="50%" x2="100%" y2="50%"><stop offset="0%" stop-opacity="1" style="stop-color:rgb(185,4,4)"/><stop offset="99.7492510877476%" stop-opacity="1" style="stop-color:rgb(179,4,4)"/><stop offset="99.99999999999991%" stop-opacity="1" style="stop-color:rgb(183,4,4)"/><stop offset="99.99999999999991%" stop-opacity="1" style="stop-color:rgb(138,3,3)"/><stop offset="100%" stop-opacity="1" style="stop-color:rgb(0,0,0)"/></linearGradient><path d=" M 8.557 8.178 C 12.613 13.278 20.608 7.844 24.306 13.441 Q 25.504 15.254 26.679 19.242 L 66.834 124.644 Q 69.588 132.317 73.051 134.199 Q 76.636 136.147 83.883 133.501 L 137.796 116.93 Q 152.299 112.05 147.381 107.511 Q 144.976 105.292 139.215 107.511 L 91.968 121.984 Q 83.014 124.985 78.738 122.358 Q 75.568 120.41 72.409 113.6 L 34.553 15.788 Q 33.407 10.526 31.889 8.178 C 26.265 -0.52 2.383 0.414 8.557 8.178 Z " fill="url(#_lgradient_9)" vector-effect="non-scaling-stroke" stroke-width="1.858" stroke="rgb(0,0,0)" stroke-linejoin="miter" stroke-linecap="square" stroke-miterlimit="3"/><path d=" M 84.979 128.514 C 82.512 123.833 76.912 121.616 73.532 122.382 C 67.292 123.797 62.442 130.243 63.444 137.791 C 64.59 146.434 72.825 151.361 79.585 147.866 C 85.873 144.615 88.629 135.44 84.979 128.514 Z " fill="rgb(157,253,253)" vector-effect="non-scaling-stroke" stroke-width="1.858" stroke="rgb(0,0,0)" stroke-linejoin="miter" stroke-linecap="square" stroke-miterlimit="3"/><path d=" M 151.912 112.726 C 149.445 108.045 143.845 105.828 140.465 106.594 C 134.225 108.009 129.376 114.455 130.377 122.003 C 131.524 130.646 139.759 135.573 146.519 132.078 C 152.806 128.827 155.562 119.652 151.912 112.726 Z " fill="rgb(178,247,247)" vector-effect="non-scaling-stroke" stroke-width="1.858" stroke="rgb(0,0,0)" stroke-linejoin="miter" stroke-linecap="square" stroke-miterlimit="3"/><linearGradient id="_lgradient_10" x1="-272.66868635599025%" y1="100.07669531207972%" x2="239.1900210358747%" y2="59.87597137246716%"><stop offset="0%" stop-opacity="1" style="stop-color:rgb(0,0,255)"/><stop offset="100%" stop-opacity="1" style="stop-color:rgb(0,0,0)"/></linearGradient><path d=" M 81.279 131.656 C 79.831 129.046 76.544 127.81 74.56 128.237 C 70.898 129.026 68.051 132.62 68.639 136.829 C 69.312 141.649 74.146 144.396 78.113 142.447 C 81.803 140.634 83.421 135.518 81.279 131.656 Z " fill="url(#_lgradient_10)" vector-effect="non-scaling-stroke" stroke-width="1.858" stroke="rgb(0,0,0)" stroke-linejoin="miter" stroke-linecap="square" stroke-miterlimit="3"/><linearGradient id="_lgradient_11" x1="-140.5590251429322%" y1="158.9580303793511%" x2="159.2439320437314%" y2="18.25549659070782%"><stop offset="0%" stop-opacity="1" style="stop-color:rgb(0,0,255)"/><stop offset="100%" stop-opacity="1" style="stop-color:rgb(0,0,0)"/></linearGradient><path d=" M 148.212 115.868 C 146.764 113.258 143.477 112.022 141.494 112.449 C 137.831 113.238 134.985 116.832 135.572 121.041 C 136.245 125.861 141.079 128.608 145.046 126.659 C 148.737 124.846 150.354 119.73 148.212 115.868 Z " fill="url(#_lgradient_11)" vector-effect="non-scaling-stroke" stroke-width="1.858" stroke="rgb(0,0,0)" stroke-linejoin="miter" stroke-linecap="square" stroke-miterlimit="3"/><linearGradient id="_lgradient_12" x1="0%" y1="50%" x2="178.27371267806998%" y2="-18.378891410616504%"><stop offset="0%" stop-opacity="1" style="stop-color:rgb(255,153,0)"/><stop offset="100%" stop-opacity="1" style="stop-color:rgb(235,141,0)"/><stop offset="100%" stop-opacity="1" style="stop-color:rgb(135,81,0)"/><stop offset="100%" stop-opacity="1" style="stop-color:rgb(0,0,0)"/></linearGradient><path d=" M 49.547 47.813 L 72.951 101.221 L 118.011 94.56 L 122.604 38.685 L 49.547 47.813 Z " fill="url(#_lgradient_12)" vector-effect="non-scaling-stroke" stroke-width="1.858" stroke="rgb(0,0,0)" stroke-linejoin="miter" stroke-linecap="square" stroke-miterlimit="3"/><linearGradient id="_lgradient_13" x1="0%" y1="50%" x2="196.6613401189481%" y2="-45.863208992997905%"><stop offset="0%" stop-opacity="1" style="stop-color:rgb(249,249,74)"/><stop offset="83.52588261353185%" stop-opacity="1" style="stop-color:rgb(248,248,74)"/><stop offset="88.38283021215204%" stop-opacity="1" style="stop-color:rgb(239,239,71)"/><stop offset="98.79484465277739%" stop-opacity="1" style="stop-color:rgb(208,208,62)"/><stop offset="100%" stop-opacity="1" style="stop-color:rgb(0,0,0)"/></linearGradient><path d=" M 54.43 51.26 L 119.427 43.278 L 115.714 91.6 L 74.045 97.274 L 54.43 51.26 Z " fill="url(#_lgradient_13)" vector-effect="non-scaling-stroke" stroke-width="1.858" stroke="rgb(0,0,0)" stroke-linejoin="miter" stroke-linecap="square" stroke-miterlimit="3"/><path d=" M 59.916 62.728 L 118.139 56.369 L 117.498 59.25 L 60.734 65.629 L 59.916 62.728 Z " fill="rgb(255,153,0)" vector-effect="non-scaling-stroke" stroke-width="1.858" stroke="rgb(0,0,0)" stroke-linejoin="miter" stroke-linecap="square" stroke-miterlimit="3"/><path d=" M 68.177 81.379 L 116.917 74.085 L 116.589 77.169 L 68.885 84.135 L 68.177 81.379 Z " fill="rgb(255,153,0)" vector-effect="non-scaling-stroke" stroke-width="1.858" stroke="rgb(0,0,0)" stroke-linejoin="miter" stroke-linecap="square" stroke-miterlimit="3"/><path d=" M 74.968 50.157 L 87.729 95.414 L 90.205 94.852 L 77.554 49.586 L 74.968 50.157 Z " fill="rgb(255,153,0)" vector-effect="non-scaling-stroke" stroke-width="1.858" stroke="rgb(0,0,0)" stroke-linejoin="miter" stroke-linecap="square" stroke-miterlimit="3"/><path d=" M 96.935 46.699 L 103.804 92.466 L 105.96 92.114 L 99.416 46.408 L 96.935 46.699 Z " fill="rgb(255,153,0)" vector-effect="non-scaling-stroke" stroke-width="1.858" stroke="rgb(0,0,0)" stroke-linejoin="miter" stroke-linecap="square" stroke-miterlimit="3"/></g></svg>