<?xml version="1.0" standalone="no"?><!-- Generator: Gravit.io --><svg xmlns="http://www.w3.org/2000/svg" xmlns:xlink="http://www.w3.org/1999/xlink" style="isolation:isolate" viewBox="0 0 220 200" width="220" height="200"><defs><clipPath id="_clipPath_JGV2bwGuOC1CNQ06Tna8OB3BKrZVZtai"><rect width="220" height="200"/></clipPath></defs><g clip-path="url(#_clipPath_JGV2bwGuOC1CNQ06Tna8OB3BKrZVZtai)"><linearGradient id="_lgradient_2" x1="-439.2555048335124%" y1="45.59177540287327%" x2="99.99999999999991%" y2="49.99999999999997%"><stop offset="78.69565217391305%" stop-opacity="1" style="stop-color:rgb(100,17,17)"/><stop offset="90.18683815267167%" stop-opacity="1" style="stop-color:rgb(139,56,11)"/><stop offset="90.95394736842103%" stop-opacity="1" style="stop-color:rgb(158,75,8)"/><stop offset="94.38062495831967%" stop-opacity="1" style="stop-color:rgb(125,42,13)"/><stop offset="98.79385964912278%" stop-opacity="1" style="stop-color:rgb(159,95,0)"/><stop offset="98.93852591708763%" stop-opacity="1" style="stop-color:rgb(207,124,0)"/><stop offset="100%" stop-opacity="1" style="stop-color:rgb(188,112,0)"/><stop offset="100%" stop-opacity="1" style="stop-color:rgb(238,143,0)"/><stop offset="100%" stop-opacity="1" style="stop-color:rgb(0,0,0)"/></linearGradient><path d=" M 4.72 171.569 L 4.72 184.889 L 213.9 186.369 L 213.9 172.309 L 191.401 172.309 L 190.793 58.349 L 140.93 58.349 L 142.146 170.829 L 109.918 170.829 L 109.918 7.289 L 35.732 8.029 L 37.556 170.829 L 4.72 171.569 Z " fill="url(#_lgradient_2)" vector-effect="non-scaling-stroke" stroke-width="1.342" stroke="rgb(0,0,0)" stroke-linejoin="miter" stroke-linecap="square" stroke-miterlimit="3"/><path d=" M 44.853 25.049 L 44.853 39.109 L 99.581 38.369 L 99.581 24.309 L 44.853 25.049 Z " fill="rgb(255,255,0)" vector-effect="non-scaling-stroke" stroke-width="1.342" stroke="rgb(0,0,0)" stroke-linejoin="miter" stroke-linecap="square" stroke-miterlimit="3"/><path d=" M 46.678 84.989 L 46.678 99.049 L 101.405 98.309 L 101.405 84.249 L 46.678 84.989 Z " fill="rgb(255,255,0)" vector-effect="non-scaling-stroke" stroke-width="1.342" stroke="rgb(0,0,0)" stroke-linejoin="miter" stroke-linecap="square" stroke-miterlimit="3"/><path d=" M 46.07 53.909 L 46.07 67.969 L 100.797 67.229 L 100.797 53.169 L 46.07 53.909 Z " fill="rgb(255,255,0)" vector-effect="non-scaling-stroke" stroke-width="1.342" stroke="rgb(0,0,0)" stroke-linejoin="miter" stroke-linecap="square" stroke-miterlimit="3"/><path d=" M 46.07 114.589 L 46.07 128.649 L 100.797 127.909 L 100.797 113.849 L 46.07 114.589 Z " fill="rgb(255,255,0)" vector-effect="non-scaling-stroke" stroke-width="1.342" stroke="rgb(0,0,0)" stroke-linejoin="miter" stroke-linecap="square" stroke-miterlimit="3"/><path d=" M 46.07 147.149 L 46.07 161.209 L 100.797 160.469 L 100.797 146.409 L 46.07 147.149 Z " fill="rgb(255,255,0)" vector-effect="non-scaling-stroke" stroke-width="1.342" stroke="rgb(0,0,0)" stroke-linejoin="miter" stroke-linecap="square" stroke-miterlimit="3"/><path d=" M 146.078 64.903 L 162.759 64.551 L 162.904 76.171 L 146.268 76.647 L 146.078 64.903 Z " fill="rgb(255,255,0)" vector-effect="non-scaling-stroke" stroke-width="1.342" stroke="rgb(0,0,0)" stroke-linejoin="miter" stroke-linecap="square" stroke-miterlimit="3"/><path d=" M 168.577 64.533 L 184.655 64.181 L 184.795 75.801 L 168.76 76.277 L 168.577 64.533 Z " fill="rgb(255,255,0)" vector-effect="non-scaling-stroke" stroke-width="1.342" stroke="rgb(0,0,0)" stroke-linejoin="miter" stroke-linecap="square" stroke-miterlimit="3"/><path d=" M 146.99 85.993 L 163.068 85.641 L 163.208 97.261 L 147.174 97.737 L 146.99 85.993 Z " fill="rgb(255,255,0)" vector-effect="non-scaling-stroke" stroke-width="1.342" stroke="rgb(0,0,0)" stroke-linejoin="miter" stroke-linecap="square" stroke-miterlimit="3"/><path d=" M 169.489 85.253 L 185.567 84.901 L 185.707 96.521 L 169.673 96.997 L 169.489 85.253 Z " fill="rgb(255,255,0)" vector-effect="non-scaling-stroke" stroke-width="1.342" stroke="rgb(0,0,0)" stroke-linejoin="miter" stroke-linecap="square" stroke-miterlimit="3"/><path d=" M 147.903 107.083 L 163.98 106.731 L 164.12 118.351 L 148.086 118.827 L 147.903 107.083 Z " fill="rgb(255,255,0)" vector-effect="non-scaling-stroke" stroke-width="1.342" stroke="rgb(0,0,0)" stroke-linejoin="miter" stroke-linecap="square" stroke-miterlimit="3"/><path d=" M 169.489 106.343 L 185.567 105.991 L 185.707 117.611 L 169.673 118.087 L 169.489 106.343 Z " fill="rgb(255,255,0)" vector-effect="non-scaling-stroke" stroke-width="1.342" stroke="rgb(0,0,0)" stroke-linejoin="miter" stroke-linecap="square" stroke-miterlimit="3"/><path d=" M 148.207 130.392 L 164.285 130.041 L 164.424 141.661 L 148.39 142.137 L 148.207 130.392 Z " fill="rgb(255,255,0)" vector-effect="non-scaling-stroke" stroke-width="1.342" stroke="rgb(0,0,0)" stroke-linejoin="miter" stroke-linecap="square" stroke-miterlimit="3"/><path d=" M 170.098 130.022 L 186.175 129.671 L 186.315 141.291 L 170.281 141.767 L 170.098 130.022 Z " fill="rgb(255,255,0)" vector-effect="non-scaling-stroke" stroke-width="1.342" stroke="rgb(0,0,0)" stroke-linejoin="miter" stroke-linecap="square" stroke-miterlimit="3"/><path d=" M 148.815 153.702 L 164.893 153.351 L 165.032 164.971 L 148.998 165.447 L 148.815 153.702 Z " fill="rgb(255,255,0)" vector-effect="non-scaling-stroke" stroke-width="1.342" stroke="rgb(0,0,0)" stroke-linejoin="miter" stroke-linecap="square" stroke-miterlimit="3"/><path d=" M 170.402 152.962 L 186.479 152.611 L 186.619 164.231 L 170.585 164.707 L 170.402 152.962 Z " fill="rgb(255,255,0)" vector-effect="non-scaling-stroke" stroke-width="1.342" stroke="rgb(0,0,0)" stroke-linejoin="miter" stroke-linecap="square" stroke-miterlimit="3"/><path d=" M 4.491 171.737 L 4.491 167.667 L 33.821 166.927 L 32.559 3.758 L 112.665 3.758 L 112.98 167.297 L 139.471 166.927 L 137.895 55.187 L 193.401 55.187 L 193.716 168.777 L 213.9 168.777 L 213.9 173.217 L 191.508 173.217 L 190.878 58.147 L 141.048 58.887 L 142.31 171.737 L 109.511 171.737 L 109.511 7.088 L 36.028 8.198 L 37.921 171.737 L 4.491 171.737 Z " fill="rgb(0,0,0)" vector-effect="non-scaling-stroke" stroke-width="1.366" stroke="rgb(0,0,0)" stroke-linejoin="miter" stroke-linecap="square" stroke-miterlimit="3"/><path d=" M 213.9 168.777 L 213.947 187.647 L 3.827 185.427 L 4.175 167.667 L 1.337 167.667 L 1.333 189.127 L 218 190.977 L 218 168.777 L 213.9 168.777 Z " fill="rgb(0,0,0)" vector-effect="non-scaling-stroke" stroke-width="1.366" stroke="rgb(0,0,0)" stroke-linejoin="miter" stroke-linecap="square" stroke-miterlimit="3"/></g></svg>