<?xml version="1.0" standalone="no"?><!-- Generator: Gravit.io --><svg xmlns="http://www.w3.org/2000/svg" xmlns:xlink="http://www.w3.org/1999/xlink" style="isolation:isolate" viewBox="0 0 150 180" width="150" height="180"><defs><clipPath id="_clipPath_O3dnIMWQuFC588yqFEHpScV4GjgWce8q"><rect width="150" height="180"/></clipPath></defs><g clip-path="url(#_clipPath_O3dnIMWQuFC588yqFEHpScV4GjgWce8q)"><path d=" M 5.061 3.697 Q 2.779 7.44 8.727 12.03 L 24.51 21.361 L 42.543 135.594 Q 43.904 148.582 47.569 152.457 Q 50.706 155.774 57.916 154.712 L 112.058 153.098 Q 119.458 153.816 120.544 148.418 Q 122.208 140.147 110.515 140.931 L 62.683 143.271 Q 57.385 143.165 54.968 140.931 Q 51.361 137.598 49.343 125.58 L 31.605 16.582 L 14.394 4.03 C 9.8 0.523 6.921 0.644 5.061 3.697 Z " fill="rgb(28,1,47)" vector-effect="non-scaling-stroke" stroke-width="1.33" stroke="rgb(0,0,0)" stroke-linejoin="miter" stroke-linecap="square" stroke-miterlimit="3"/><path d=" M 39.358 64.422 L 126.666 64.422 Q 134.428 65.036 135.9 69.101 Q 137.117 72.461 133.802 78.46 C 127.107 89.046 119.144 102.163 107.358 119.64 L 49.727 120.364 L 50.692 125.723 L 109.876 125.723 L 138.839 80.8 Q 143.904 71.086 141.777 65.825 Q 139.377 59.892 127.925 58.806 L 39.358 59.274 L 39.358 64.422 Z " fill="rgb(35,2,57)" vector-effect="non-scaling-stroke" stroke-width="1.33" stroke="rgb(0,0,0)" stroke-linejoin="miter" stroke-linecap="square" stroke-miterlimit="3"/><path d=" M 63.246 65.315 L 64.925 120.065 L 67.71 119.927 L 67.471 111.608 L 66.136 65.177 L 63.246 65.315 Z " fill="rgb(39,4,62)" vector-effect="non-scaling-stroke" stroke-width="1.33" stroke="rgb(0,0,0)" stroke-linejoin="miter" stroke-linecap="square" stroke-miterlimit="3"/><path d=" M 83.709 65.315 L 85.388 120.065 L 88.173 119.927 L 86.599 65.177 L 83.709 65.315 Z " fill="rgb(36,7,55)" vector-effect="non-scaling-stroke" stroke-width="1.33" stroke="rgb(0,0,0)" stroke-linejoin="miter" stroke-linecap="square" stroke-miterlimit="3"/><defs><filter id="Ss80ybBD4RbdlD3w4YT1OVcSwHP3bvIP" x="-200%" y="-200%" width="400%" height="400%"><feGaussianBlur xmlns="http://www.w3.org/2000/svg" stdDeviation="0"/></filter></defs><g filter="url(#Ss80ybBD4RbdlD3w4YT1OVcSwHP3bvIP)"><path d=" M 103.069 64.788 L 104.748 119.539 L 107.534 119.4 C 106.544 92.317 106.031 74.081 105.96 64.65 L 103.069 64.788 Z " fill="rgb(42,8,64)" vector-effect="non-scaling-stroke" stroke-width="1.33" stroke="rgb(0,0,0)" stroke-linejoin="miter" stroke-linecap="square" stroke-miterlimit="3"/></g><defs><filter id="15ubiwWVwVYm5i1ETNL6e3Pq1anofgan" x="-200%" y="-200%" width="400%" height="400%"><feGaussianBlur xmlns="http://www.w3.org/2000/svg" stdDeviation="0"/></filter></defs><g filter="url(#15ubiwWVwVYm5i1ETNL6e3Pq1anofgan)"><path d=" M 44.775 92.269 L 125.509 91.969 L 126.78 88.755 L 44.621 89.043 L 44.775 92.269 Z " fill="rgb(36,6,55)" vector-effect="non-scaling-stroke" stroke-width="1.33" stroke="rgb(0,0,0)" stroke-linejoin="miter" stroke-linecap="square" stroke-miterlimit="3"/></g><path d=" M 70.887 5.46 L 78.3 5.508 L 77.699 42.593 L 84.896 42.311 L 74.865 57.157 L 64.634 42.417 L 72.032 42.417 L 70.887 5.46 Z " fill="rgb(247,162,36)" vector-effect="non-scaling-stroke" stroke-width="1.33" stroke="rgb(0,0,0)" stroke-linejoin="miter" stroke-linecap="square" stroke-miterlimit="3"/><path d=" M 66.239 154.848 C 61.399 154.768 55.997 158.357 56.364 164.973 C 56.681 170.708 61.053 173.806 65.364 173.973 C 70.559 174.175 76.409 169.598 75.271 162.565 C 74.419 157.299 70.288 154.915 66.239 154.848 Z " fill="rgb(28,1,47)" vector-effect="non-scaling-stroke" stroke-width="1.261" stroke="rgb(0,0,0)" stroke-linejoin="miter" stroke-linecap="square" stroke-miterlimit="3"/><path d=" M 96.447 154.64 C 91.607 154.56 86.205 158.148 86.572 164.765 C 86.89 170.5 91.261 173.598 95.572 173.765 C 100.767 173.967 106.617 169.39 105.479 162.357 C 104.627 157.091 100.496 154.707 96.447 154.64 Z " fill="rgb(28,1,47)" vector-effect="non-scaling-stroke" stroke-width="1.261" stroke="rgb(0,0,0)" stroke-linejoin="miter" stroke-linecap="square" stroke-miterlimit="3"/></g></svg>