<?xml version="1.0" standalone="no"?><!-- Generator: Gravit.io --><svg xmlns="http://www.w3.org/2000/svg" xmlns:xlink="http://www.w3.org/1999/xlink" style="isolation:isolate" viewBox="0 0 140 190" width="140" height="190"><defs><clipPath id="_clipPath_mBT7wDjBOcp7D3vEBUgNBxHEDSHExvTG"><rect width="140" height="190"/></clipPath></defs><g clip-path="url(#_clipPath_mBT7wDjBOcp7D3vEBUgNBxHEDSHExvTG)"><path d=" M 4.121 2.939 L 23.742 3.384 L 52.389 84.317 L 98.445 84.438 L 119.636 28.852 Q 125.999 19.008 130.447 22.182 Q 134.812 25.298 130.054 35.967 L 106.294 96.889 L 52.155 97.136 L 25.256 156.136 L 114.784 155.911 L 114.784 168.807 L 22.565 169.252 Q 14.612 169.102 12.362 165.25 Q 10.347 161.799 12.362 154.133 L 41.794 91.432 L 17.071 14.501 L 4.455 14.273 L 4.121 2.939 Z " fill="rgb(28,28,91)" vector-effect="non-scaling-stroke" stroke-width="1.267" stroke="rgb(0,0,0)" stroke-linejoin="miter" stroke-linecap="square" stroke-miterlimit="3"/><path d=" M 70.067 69.097 C 77.958 69.07 80.495 68.809 79.768 68.839 L 79.166 29.318 L 85.786 29.318 L 74.954 13.309 L 62.299 29.399 L 69.921 29.399 L 70.067 69.097 Z " fill="rgb(164,29,29)" vector-effect="non-scaling-stroke" stroke-width="1.267" stroke="rgb(0,0,0)" stroke-linejoin="miter" stroke-linecap="square" stroke-miterlimit="3"/><path d=" M 87.157 171.158 C 82.769 172.1 80.957 175.344 81.085 179.386 C 81.237 184.161 85.231 187.855 89.571 187.1 C 93.599 186.399 96.293 182.224 95.643 177.844 C 94.99 173.446 90.22 170.029 87.157 171.158 Z " fill="rgb(166,17,17)" vector-effect="non-scaling-stroke" stroke-width="1.267" stroke="rgb(0,0,0)" stroke-linejoin="miter" stroke-linecap="square" stroke-miterlimit="3"/><path d=" M 52.657 171.158 C 48.269 172.1 46.457 175.344 46.585 179.386 C 46.737 184.161 50.731 187.855 55.071 187.1 C 59.099 186.399 61.793 182.224 61.143 177.844 C 60.49 173.446 55.72 170.029 52.657 171.158 Z " fill="rgb(179,24,24)" vector-effect="non-scaling-stroke" stroke-width="1.267" stroke="rgb(0,0,0)" stroke-linejoin="miter" stroke-linecap="square" stroke-miterlimit="3"/></g></svg>