<?xml version="1.0" standalone="no"?><!-- Generator: Gravit.io --><svg xmlns="http://www.w3.org/2000/svg" xmlns:xlink="http://www.w3.org/1999/xlink" style="isolation:isolate" viewBox="0 0 150 200" width="150" height="200"><defs><clipPath id="_clipPath_mxdNUobQ9FUaDkSYqeOwAeP9DRqrLWM4"><rect width="150" height="200"/></clipPath></defs><g clip-path="url(#_clipPath_mxdNUobQ9FUaDkSYqeOwAeP9DRqrLWM4)"><path d=" M 46.769 48.516 Q 36.24 29.223 41.418 19.187 C 45.627 11.03 53.251 5.71 62.824 5.161 Q 72.67 4.595 86.237 17.275 Q 101.638 16.73 106.974 22.375 Q 115.615 31.518 100.285 51.704" fill="rgb(0,0,0)" vector-effect="non-scaling-stroke" stroke-width="7.496" stroke="rgb(0,0,0)" stroke-linejoin="miter" stroke-linecap="butt" stroke-miterlimit="10"/><path d=" M 46.493 53.038 Q 46.279 42.13 50.617 38.361 C 56.132 33.568 63.291 40.261 69.863 38.361 Q 76.639 36.401 86.36 27.686 Q 92.911 32.203 95.295 35.692 Q 99.477 41.812 98.732 55.707 Q 99.445 71.459 93.921 77.723 Q 89.897 82.285 78.799 85.729 Q 75.241 89.297 72.573 89.345 Q 69.541 89.4 65.739 85.062 Q 51.122 80.511 47.18 73.72 Q 43.358 67.135 46.493 53.038 Z " fill="rgb(240,232,220)" vector-effect="non-scaling-stroke" stroke-width="2.032" stroke="rgb(0,0,0)" stroke-linejoin="miter" stroke-linecap="square" stroke-miterlimit="3"/><path d=" M 99.531 62.303 Q 109.674 56.607 106.183 52.299 Q 104.488 50.208 99.145 50.071" fill="rgb(0,0,0)" vector-effect="non-scaling-stroke" stroke-width="2.032" stroke="rgb(0,0,0)" stroke-linejoin="miter" stroke-linecap="square" stroke-miterlimit="3"/><path d=" M 45.092 60.072 Q 36.798 53.659 39.327 49.231 Q 40.725 46.784 46.095 45.455" fill="rgb(0,0,0)" vector-effect="non-scaling-stroke" stroke-width="2.032" stroke="rgb(0,0,0)" stroke-linejoin="miter" stroke-linecap="square" stroke-miterlimit="3"/><path d=" M 23.716 128.123 L 123.727 128.283 Q 117.792 110.864 109.801 104.515 C 99.618 96.424 87.1 96.047 73.957 96.1 C 58.431 96.162 42.666 96.595 32.454 108.109 Q 27.16 114.077 23.716 128.123 Z " fill="rgb(247,59,59)" vector-effect="non-scaling-stroke" stroke-width="2.032" stroke="rgb(0,0,0)" stroke-linejoin="miter" stroke-linecap="square" stroke-miterlimit="3"/><path d=" M 59.803 83.5 L 58.256 92.006 Q 67.677 98.467 73.722 98.01 Q 79.211 97.595 87.125 91.005 L 87.125 82.999 L 80.423 85.501 Q 76.632 89.504 73.722 89.504 Q 70.811 89.504 67.02 85.501 L 59.803 83.5 Z " fill="rgb(251,240,228)" vector-effect="non-scaling-stroke" stroke-width="2.032" stroke="rgb(0,0,0)" stroke-linejoin="miter" stroke-linecap="square" stroke-miterlimit="3"/><linearGradient id="_lgradient_0" x1="-53.000594177064755%" y1="38.15937149270474%" x2="100.00000000000003%" y2="50%"><stop offset="0%" stop-opacity="1" style="stop-color:rgb(255,255,255)"/><stop offset="0.43478260869565216%" stop-opacity="1" style="stop-color:rgb(163,163,163)"/><stop offset="4.3478260869565215%" stop-opacity="1" style="stop-color:rgb(170,170,170)"/><stop offset="5.6521739130434785%" stop-opacity="1" style="stop-color:rgb(193,193,193)"/><stop offset="100%" stop-opacity="1" style="stop-color:rgb(135,135,135)"/><stop offset="100%" stop-opacity="1" style="stop-color:rgb(0,0,0)"/></linearGradient><path d=" M 14.03 121.515 L 134.364 121.838 L 115.879 181.636 L 34.545 181.636 L 14.03 121.515 Z " fill="url(#_lgradient_0)" vector-effect="non-scaling-stroke" stroke-width="1.233" stroke="rgb(0,0,0)" stroke-linejoin="miter" stroke-linecap="square" stroke-miterlimit="3"/><linearGradient id="_lgradient_1" x1="-57.04692324037845%" y1="33.888121636554295%" x2="100%" y2="50%"><stop offset="0%" stop-opacity="1" style="stop-color:rgb(255,255,255)"/><stop offset="100%" stop-opacity="1" style="stop-color:rgb(0,0,0)"/></linearGradient><path d=" M 40.492 183.688 C 69.123 184.137 93.612 184.145 113.928 183.688 Q 120.651 184.255 120.544 187.028 Q 120.439 189.751 113.829 190.077 L 41.8 190.077 Q 30.545 190.704 30.545 187.572 Q 30.545 183.502 40.492 183.688 Z " fill="url(#_lgradient_1)" vector-effect="non-scaling-stroke" stroke-width="1.233" stroke="rgb(0,0,0)" stroke-linejoin="miter" stroke-linecap="square" stroke-miterlimit="3"/><path d=" M 71.897 144.672 C 68.811 145.244 66.533 147.924 66.538 151.23 C 66.543 155.19 69.96 158.193 73.684 157.788 C 77.096 157.417 79.704 154.374 79.49 150.761 C 79.254 146.777 75.615 143.983 71.897 144.672 Z " fill="rgb(0,0,0)" vector-effect="non-scaling-stroke" stroke-width="1.233" stroke="rgb(0,0,0)" stroke-linejoin="miter" stroke-linecap="square" stroke-miterlimit="3"/><path d=" M 72.88 148.131 C 71.151 148.137 69.815 149.654 69.947 151.363 C 70.067 152.909 71.316 154.129 72.88 154.132 C 74.394 154.135 75.619 153.006 75.812 151.516 C 76.04 149.758 74.669 148.126 72.88 148.131 Z " fill="rgb(255,255,255)" vector-effect="non-scaling-stroke" stroke-width="1.233" stroke="rgb(0,0,0)" stroke-linejoin="miter" stroke-linecap="square" stroke-miterlimit="3"/></g></svg>